<svg width="91" height="38" viewBox="0 0 91 38" fill="none" xmlns="http://www.w3.org/2000/svg">
<path fill-rule="evenodd" clip-rule="evenodd" d="M42.3875 0.054371C42.291 0.0987914 42.0949 0.271877 41.7842 0.586724C41.3393 1.03754 41.3126 1.05863 40.9897 1.21443C40.6589 1.37405 40.2688 1.49125 39.8131 1.56797C39.6342 1.5981 38.4032 1.61189 34.6881 1.62543L29.7986 1.64324L29.6482 1.71669C29.4393 1.81866 29.1354 2.15513 29.0502 2.37872C29.013 2.47634 28.9263 2.81121 28.8575 3.12288C28.7887 3.43454 28.2394 5.94205 27.6369 8.69511C27.0343 11.4482 26.4691 13.9911 26.3807 14.346C26.243 14.8988 26.2194 15.0388 26.216 15.322C26.2126 15.6062 26.2225 15.6756 26.2865 15.8171C26.3849 16.0346 26.5879 16.2173 26.801 16.28C27.1086 16.3706 27.7575 16.3242 28.9572 16.1257C29.8875 15.9718 30.2518 15.9429 31.0368 15.9608C32.1272 15.9856 32.8768 16.1054 33.7774 16.3987C35.2955 16.8932 36.6012 17.8596 37.4521 19.1187C38.0298 19.9734 38.4287 21.0726 38.5991 22.2794C38.667 22.7609 38.6774 24.3768 38.6157 24.8766C38.4472 26.2422 38.1585 27.2364 37.6103 28.3396C36.7176 30.136 35.2658 31.6711 33.5165 32.6683C32.4425 33.2806 31.2289 33.6708 29.8303 33.8536C29.2435 33.9303 27.8325 33.9322 27.3765 33.8569C26.6021 33.729 25.6237 33.4712 24.1078 32.9954L23.1477 32.6942L23.0385 32.7611C22.5722 33.0469 22.6151 33.4668 23.1464 33.817C23.5539 34.0856 24.2432 34.3279 25.1949 34.5369C26.2342 34.7652 27.7409 35.0165 28.7508 35.1299C29.1987 35.1801 30.3817 35.1796 30.894 35.1289C33.8803 34.8332 36.314 33.666 38.514 31.4743C40.7242 29.2724 42.0103 26.7073 42.3709 23.7818C42.593 21.9799 42.4475 20.2974 41.9429 18.8322C41.7771 18.3507 41.3436 17.4759 41.0694 17.0692C40.2116 15.7972 38.9481 14.7291 37.4186 13.9831C35.7749 13.1814 34.1583 12.8313 32.1005 12.8315C31.2205 12.8315 30.3941 12.8893 29.3065 13.0267C28.8961 13.0785 28.4925 13.1294 28.4095 13.1397C28.2761 13.1564 28.2587 13.1517 28.2588 13.099C28.2589 13.0663 28.5093 11.8212 28.8154 10.3321C29.1215 8.84307 29.4008 7.41932 29.4362 7.16825C29.5682 6.23042 29.8791 5.66586 30.3958 5.42606C30.7908 5.24272 30.6579 5.24788 34.9893 5.24788C37.597 5.24788 39.0655 5.23633 39.2654 5.21423C39.6151 5.17557 40.0312 5.06374 40.27 4.94424C40.5756 4.7913 41.079 4.42826 41.2835 4.21333C41.5213 3.96346 41.6991 3.62438 42.2599 2.35158C42.4544 1.91005 42.6679 1.44869 42.7342 1.32635C43.1404 0.57706 43.1074 0.0551265 42.6506 0.00239494C42.5707 -0.00682915 42.4824 0.0106116 42.3875 0.054371ZM8.46262 0.87245C8.30546 0.979046 8.07686 1.14747 7.95462 1.24667C6.49022 2.43535 4.68816 3.41248 3.01751 3.92367C2.19271 4.17609 1.12702 4.53369 0.969633 4.61088C0.555804 4.81384 0.142166 5.19537 0.0522505 5.45701C-0.0260131 5.68472 -0.0154734 5.91771 0.077935 6.02528C0.146102 6.1038 0.175249 6.11343 0.339872 6.11195C0.577775 6.10985 0.894322 6.01253 1.43001 5.77686C2.2697 5.40746 2.62946 5.32359 3.25563 5.35126C3.72455 5.37198 4.06653 5.4703 4.35891 5.66844C4.72359 5.9156 5.07897 6.4167 5.18873 6.83858C5.30211 7.27438 5.30696 7.84136 5.29569 19.3201C5.28353 31.733 5.30122 30.6659 5.09564 31.3933C4.90888 32.054 4.53906 32.6059 4.02274 32.9944C3.59847 33.3137 3.38527 33.3884 2.62063 33.4862C1.50062 33.6293 1.02682 33.74 0.84111 33.9016C0.717 34.0097 0.636259 34.1424 0.636259 34.2384C0.636259 34.3541 0.789007 34.4907 0.980332 34.5461C1.13991 34.5922 1.29758 34.5957 2.38251 34.5765C3.05481 34.5646 4.42641 34.527 5.4305 34.4928C8.40519 34.3917 9.88255 34.3814 11.8939 34.4476C13.7568 34.509 13.8925 34.5041 14.1144 34.3681C14.2336 34.2951 14.3205 34.1365 14.3205 33.9921C14.3205 33.8334 14.2422 33.722 14.0757 33.6441C13.9397 33.5804 13.8381 33.5685 13.114 33.5318C11.97 33.4737 11.3844 33.3765 10.7804 33.1447C10.0908 32.8801 9.66233 32.4969 9.34997 31.8655C9.10194 31.3641 8.96503 30.8125 8.89284 30.0238C8.87048 29.7795 8.85969 25.4749 8.85959 16.7857C8.8595 2.67735 8.84496 3.7685 9.0492 2.54047C9.16893 1.82039 9.22361 1.2689 9.1944 1.07569C9.16595 0.887561 9.01793 0.719545 8.8595 0.695493C8.76225 0.680728 8.71272 0.702796 8.46262 0.87245ZM57.4846 0.87245C57.3274 0.979046 57.0988 1.14747 56.9766 1.24667C55.5122 2.43535 53.7101 3.41248 52.0394 3.92367C51.2146 4.17609 50.149 4.53369 49.9916 4.61088C49.5777 4.81384 49.1641 5.19537 49.0742 5.45701C48.9959 5.68472 49.0065 5.91771 49.0999 6.02528C49.168 6.1038 49.1972 6.11343 49.3618 6.11195C49.5997 6.10985 49.9163 6.01253 50.4519 5.77686C51.2916 5.40746 51.6514 5.32359 52.2776 5.35126C52.7465 5.37198 53.0885 5.4703 53.3808 5.66844C53.7455 5.9156 54.1009 6.4167 54.2107 6.83858C54.324 7.27438 54.3289 7.84136 54.3176 19.3201C54.3055 31.733 54.3232 30.6659 54.1176 31.3933C53.9308 32.054 53.561 32.6059 53.0447 32.9944C52.6204 33.3137 52.4072 33.3884 51.6426 33.4862C50.5226 33.6293 50.0488 33.74 49.863 33.9016C49.7389 34.0097 49.6582 34.1424 49.6582 34.2384C49.6582 34.3541 49.8109 34.4907 50.0023 34.5461C50.1618 34.5922 50.3195 34.5957 51.4044 34.5765C52.0768 34.5646 53.4483 34.527 54.4524 34.4928C57.4271 34.3917 58.9045 34.3814 60.9158 34.4476C62.7788 34.509 62.9145 34.5041 63.1363 34.3681C63.2555 34.2951 63.3424 34.1365 63.3424 33.9921C63.3424 33.8334 63.2641 33.722 63.0977 33.6441C62.9616 33.5804 62.8601 33.5685 62.1359 33.5318C60.9919 33.4737 60.4063 33.3765 59.8023 33.1447C59.1128 32.8801 58.6843 32.4969 58.3719 31.8655C58.1239 31.3641 57.987 30.8125 57.9148 30.0238C57.8924 29.7795 57.8816 25.4749 57.8815 16.7857C57.8814 2.67735 57.8669 3.7685 58.0711 2.54047C58.1909 1.82039 58.2455 1.2689 58.2163 1.07569C58.1879 0.887561 58.0399 0.719545 57.8814 0.695493C57.7842 0.680728 57.7347 0.702796 57.4846 0.87245ZM75.1217 1.59596C74.789 1.75138 74.6897 1.93253 74.534 2.66866C74.4702 2.97041 74.3398 3.54315 74.2441 3.9414C73.6842 6.27304 73.526 7.20672 73.5213 8.20714C73.5186 8.77822 73.5235 8.83353 73.5913 9.00016C73.6767 9.20974 73.8279 9.35471 74.0127 9.40404C74.3122 9.48403 74.4668 9.34476 74.616 8.86029C74.9007 7.93615 74.9768 7.71783 75.1056 7.4554C75.2762 7.1079 75.5246 6.7367 75.7335 6.51725C76.1539 6.0754 77.0929 5.61785 78.0109 5.40736C78.9237 5.19811 79.2805 5.18558 84.342 5.18523L88.8157 5.18492L88.7955 5.57057C88.7163 7.08779 88.2355 9.11388 87.4715 11.1507C86.5906 13.4993 85.3279 16.1769 83.9299 18.6611C82.9963 20.3201 82.2286 21.9366 81.4862 23.8069C80.0751 27.3618 79.4803 29.8345 79.3407 32.7256C79.2852 33.8765 79.3673 34.94 79.5673 35.659C79.6769 36.053 79.9168 36.504 80.1324 36.7211C80.406 36.9966 80.6659 37.1157 81.0313 37.133C81.5145 37.1559 82.3161 37.0256 83.0579 36.8035C83.7084 36.6087 84.0909 36.3778 84.2387 36.0905C84.3363 35.9008 84.3087 35.7093 84.1264 35.3117C83.7697 34.5339 83.595 33.9396 83.4743 33.0933C83.3112 31.9502 83.283 30.5637 83.4028 29.5831C83.6577 27.4964 84.12 25.4764 84.8998 23.0411C85.1421 22.2841 85.3586 21.6707 86.7575 17.7775C88.2479 13.6299 89.3894 10.4058 89.611 9.71826C90.4471 7.12468 90.9033 4.85776 90.9555 3.03725C90.9718 2.46951 90.9673 2.36682 90.9203 2.24482C90.8586 2.08477 90.6382 1.86749 90.4629 1.79391C90.0804 1.63336 90.5159 1.64324 83.8212 1.64306C79.1313 1.6429 77.517 1.63336 77.2172 1.60396C76.9989 1.58258 76.4702 1.55702 76.0424 1.54713C75.2959 1.52991 75.2588 1.53186 75.1217 1.59596Z" fill="#B03A3F"/>
</svg>
