<?xml version="1.0" standalone="no"?>
<!DOCTYPE svg PUBLIC "-//W3C//DTD SVG 20010904//EN"
 "http://www.w3.org/TR/2001/REC-SVG-20010904/DTD/svg10.dtd">
<svg version="1.0" xmlns="http://www.w3.org/2000/svg"
 width="1182.000000pt" height="1280.000000pt" viewBox="0 0 1182.000000 1280.000000"
 preserveAspectRatio="xMidYMid meet">
<metadata>
Created by potrace 1.15, written by Peter Selinger 2001-2017
</metadata>
<g transform="translate(0.000000,1280.000000) scale(0.100000,-0.100000)"
fill="#000000" stroke="none">
<path d="M5280 12793 c-182 -31 -224 -163 -51 -163 47 0 51 -2 57 -27 4 -15 3
-133 -2 -262 -13 -342 -11 -586 5 -651 19 -80 77 -196 178 -355 49 -77 93
-146 97 -154 5 -8 -30 18 -79 57 -111 90 -237 153 -395 198 -167 47 -257 91
-309 151 -27 30 -39 52 -35 62 3 9 8 41 11 72 14 141 -71 199 -128 88 -27 -55
-52 -175 -44 -219 13 -72 54 -100 100 -66 17 12 24 10 60 -19 57 -46 129 -80
279 -132 350 -119 521 -248 595 -447 12 -32 20 -60 18 -63 -3 -2 -20 5 -38 16
-19 11 -69 31 -111 45 -95 32 -187 34 -348 6 -145 -25 -264 -35 -324 -26 l-46
7 0 68 c0 74 -23 121 -59 121 -72 0 -142 -231 -99 -325 23 -50 84 -42 113 16
15 28 18 29 53 22 60 -13 150 -7 252 16 261 58 442 43 568 -49 47 -34 45 -20
56 -370 6 -211 26 -441 51 -614 27 -178 17 -579 -21 -906 -84 -724 -327 -1235
-673 -1414 -289 -149 -735 -155 -1270 -16 -283 74 -567 179 -667 248 -159 107
-464 285 -695 405 -116 60 -158 88 -200 132 -30 30 -59 55 -66 55 -16 0 -67
53 -159 163 -181 215 -279 411 -303 601 l-10 80 45 39 c53 47 60 86 19 113
-22 14 -34 15 -81 6 -71 -15 -166 -65 -204 -109 -36 -40 -37 -56 -9 -84 18
-18 30 -21 73 -16 28 3 58 7 66 9 10 2 16 -12 22 -57 19 -149 105 -346 218
-502 32 -46 57 -83 55 -83 -4 0 -174 92 -255 138 -410 233 -630 568 -749 1141
l-20 94 24 29 c30 36 33 83 6 98 -49 26 -164 -5 -253 -67 -108 -74 -64 -164
62 -129 30 8 62 17 71 21 12 5 18 -7 28 -62 17 -99 77 -310 117 -414 86 -226
223 -437 363 -556 104 -89 203 -153 431 -280 l195 -108 -55 -7 c-89 -13 -156
-28 -310 -69 -308 -82 -440 -66 -890 111 -234 91 -327 124 -395 138 -40 8 -40
8 -45 60 -10 95 -74 121 -119 49 -31 -50 -54 -152 -49 -219 5 -64 27 -98 64
-98 28 0 70 49 85 100 11 36 15 39 38 33 84 -19 210 -66 392 -143 328 -140
427 -166 597 -157 78 4 151 17 267 46 88 23 165 41 170 41 6 0 -13 -13 -40
-29 -76 -43 -144 -109 -274 -265 -149 -178 -237 -260 -318 -298 l-63 -30 -32
20 c-52 31 -128 54 -160 47 -43 -10 -56 -45 -31 -87 38 -66 178 -148 252 -148
40 0 65 31 57 73 -6 31 -4 34 31 51 67 32 132 88 206 180 179 224 280 320 407
389 85 46 159 67 238 67 l64 0 -60 -66 c-67 -72 -134 -192 -151 -269 -6 -27
-18 -105 -26 -173 -18 -140 -46 -240 -78 -277 l-22 -26 -45 20 c-64 29 -125
28 -145 -3 -15 -22 -15 -27 -1 -54 47 -92 228 -178 297 -142 26 15 25 62 -4
96 l-24 27 34 66 c28 54 37 91 54 206 25 182 44 254 85 342 38 79 122 178 178
208 l35 19 63 -44 c351 -244 523 -345 828 -485 119 -55 187 -94 293 -170 695
-496 1113 -1009 1212 -1483 19 -91 19 -256 1 -343 -53 -250 -246 -502 -584
-762 -118 -91 -399 -274 -477 -312 -418 -198 -600 -299 -796 -439 -80 -57 -99
-67 -125 -63 -21 4 -40 -1 -55 -11 -21 -15 -52 -17 -219 -16 -301 1 -472 39
-640 140 l-85 52 3 39 c2 22 -3 57 -12 77 -12 30 -20 36 -45 36 -102 0 -182
-322 -86 -346 33 -8 61 10 91 61 14 25 27 45 29 45 1 0 28 -16 60 -35 133 -80
288 -127 492 -148 l118 -12 -130 -52 c-311 -123 -420 -148 -640 -147 -255 1
-436 50 -751 204 l-182 89 -6 45 c-9 57 -42 85 -81 68 -48 -22 -105 -162 -105
-258 0 -48 30 -94 62 -94 28 0 70 48 91 106 l17 50 153 -76 c412 -202 747
-268 1052 -205 94 19 270 77 444 146 68 28 125 49 126 47 2 -2 -13 -30 -32
-63 -20 -33 -67 -129 -106 -214 -86 -187 -128 -253 -215 -339 -92 -91 -204
-163 -455 -293 -116 -61 -251 -136 -298 -167 l-85 -57 -44 27 c-50 31 -68 34
-95 14 -24 -17 -24 -70 0 -116 22 -43 111 -138 147 -156 40 -21 75 -18 93 9
17 27 9 67 -25 121 l-20 34 47 35 c81 58 127 84 348 197 233 118 369 204 428
270 56 61 121 165 205 328 41 79 76 142 78 140 2 -2 -2 -22 -8 -44 -7 -22 -12
-96 -11 -174 1 -121 5 -149 38 -275 43 -165 56 -314 32 -380 -12 -35 -23 -45
-92 -80 -93 -47 -124 -82 -109 -122 20 -57 132 -52 249 10 76 41 103 76 86
113 -6 14 -21 28 -32 31 -18 5 -19 10 -12 47 14 69 6 184 -22 341 -35 199 -45
432 -21 525 21 84 57 156 100 206 l35 39 1 -30 c1 -53 28 -164 56 -226 18 -39
71 -112 151 -207 111 -132 193 -259 193 -298 0 -7 -20 -23 -45 -35 -58 -29
-87 -61 -87 -95 -1 -42 27 -57 97 -51 162 13 301 126 223 181 -12 9 -39 16
-59 16 -36 0 -38 2 -54 49 -20 61 -53 108 -156 218 -161 174 -219 288 -227
445 l-4 97 53 27 c30 15 58 32 64 39 13 15 453 273 840 491 104 59 481 179
713 228 247 52 333 60 592 60 262 0 341 -9 512 -59 533 -154 846 -589 983
-1366 28 -156 29 -170 50 -614 20 -409 21 -542 2 -587 -9 -21 -13 -52 -10 -75
3 -28 -7 -72 -41 -169 -86 -250 -178 -415 -299 -534 -88 -88 -138 -121 -162
-108 -69 39 -135 23 -135 -33 0 -40 72 -117 148 -156 78 -41 109 -48 138 -28
36 24 32 66 -12 115 l-37 40 87 81 c106 100 201 238 266 390 l47 109 7 -47
c12 -92 7 -477 -9 -564 -50 -289 -217 -564 -523 -862 l-111 -107 -53 6 c-46 5
-56 3 -72 -15 -27 -30 -13 -67 47 -127 86 -83 197 -125 237 -89 11 10 20 28
20 40 0 25 -39 80 -78 112 l-27 21 151 154 c334 341 469 585 505 917 8 70 9
191 5 351 l-6 245 22 -30 c12 -16 99 -109 193 -205 187 -191 232 -254 286
-401 39 -106 61 -209 94 -429 28 -187 55 -327 78 -401 l14 -47 -44 -37 c-37
-31 -44 -42 -41 -68 4 -46 41 -61 114 -48 76 14 170 58 199 93 62 73 -4 130
-113 99 -30 -9 -34 -8 -43 17 -20 52 -48 198 -74 387 -32 240 -49 324 -85 431
-47 139 -73 176 -261 376 -104 111 -114 124 -77 103 60 -33 164 -60 373 -95
263 -45 329 -64 410 -120 39 -27 41 -31 52 -105 7 -47 19 -88 31 -104 27 -36
68 -35 96 2 29 39 36 198 11 263 -25 67 -69 83 -107 39 -21 -24 -21 -24 -45
-5 -44 34 -129 59 -280 80 -257 37 -366 65 -493 128 -85 42 -189 138 -229 211
l-24 44 24 -7 c13 -4 60 -14 103 -22 123 -22 203 -8 400 70 173 69 227 85 293
86 45 0 40 8 59 -90 11 -60 62 -97 101 -72 46 29 62 212 25 295 -34 77 -95 73
-122 -8 -11 -32 -11 -33 -88 -37 -64 -4 -101 -15 -227 -66 -82 -33 -179 -68
-215 -77 -95 -26 -219 -24 -303 4 -72 24 -85 38 -87 92 -7 289 -32 759 -47
889 -24 214 -24 860 0 1060 77 631 276 931 677 1017 119 25 547 25 730 0 441
-61 1046 -219 1266 -330 123 -62 307 -140 429 -183 56 -19 96 -42 135 -74 30
-26 65 -50 76 -54 31 -10 242 -230 319 -333 88 -117 159 -263 186 -380 l21
-93 -41 -45 c-63 -68 -49 -115 33 -115 90 0 256 113 256 173 0 52 -52 69 -129
42 -32 -11 -43 -12 -45 -2 -2 7 -11 46 -21 87 -32 140 -120 303 -247 457 l-59
72 68 -28 c256 -107 393 -180 507 -271 233 -185 400 -469 527 -894 l29 -98
-30 -35 c-33 -37 -37 -59 -16 -88 47 -65 316 70 316 159 0 28 -33 56 -67 56
-13 0 -46 -9 -75 -20 -28 -11 -53 -18 -55 -17 -1 2 -16 46 -32 98 -148 480
-344 778 -634 962 -75 48 -224 123 -395 198 -75 33 -141 64 -145 68 -5 5 16
11 45 15 29 4 142 36 250 72 349 114 485 110 911 -25 167 -53 309 -91 391
-105 l70 -12 11 -52 c15 -66 30 -84 69 -80 42 4 71 51 86 138 15 90 5 166 -26
197 -13 12 -30 23 -39 23 -25 0 -61 -46 -75 -95 -10 -35 -17 -45 -34 -45 -43
0 -192 42 -393 110 -227 77 -317 102 -436 121 -111 17 -211 1 -431 -71 -99
-33 -182 -57 -184 -55 -2 2 11 11 29 21 63 32 151 129 273 299 138 193 219
281 292 318 l51 26 59 -24 c134 -55 223 -5 148 84 -50 60 -216 124 -273 106
-34 -10 -45 -41 -27 -75 14 -29 14 -31 -13 -44 -53 -28 -132 -109 -188 -194
-190 -289 -328 -423 -497 -483 -59 -20 -186 -38 -186 -25 0 4 12 19 26 34 64
67 128 183 144 259 5 27 16 120 25 209 14 154 39 269 67 307 12 17 16 17 50 2
55 -22 135 -20 148 4 16 31 12 48 -22 86 -35 41 -122 88 -192 106 -36 9 -53 9
-76 -1 -49 -20 -48 -61 2 -116 19 -21 19 -22 -1 -55 -30 -52 -39 -101 -50
-274 -12 -176 -34 -275 -82 -365 -35 -66 -105 -150 -125 -150 -7 0 -60 18
-116 41 -176 70 -337 129 -516 190 -175 59 -241 92 -407 202 -448 298 -716
671 -790 1102 -21 119 -23 343 -6 464 64 440 291 865 705 1321 105 116 144
151 249 223 158 109 367 270 519 400 167 142 189 159 212 153 10 -3 32 2 47
10 21 11 70 14 205 14 300 0 496 -43 657 -144 80 -51 82 -53 79 -88 -4 -48 20
-104 48 -113 45 -14 91 42 124 154 23 77 21 142 -5 175 -11 14 -26 26 -33 26
-23 0 -66 -40 -87 -81 l-20 -40 -29 21 c-46 33 -209 106 -277 124 -84 23 -219
46 -268 46 -92 0 -93 11 -4 47 165 67 270 103 371 130 96 26 117 28 298 28
171 0 207 -3 290 -24 156 -39 285 -87 473 -178 152 -74 177 -90 177 -109 0
-30 18 -77 33 -86 22 -14 53 -8 74 15 69 75 106 260 63 312 -36 43 -101 0
-135 -89 l-18 -46 -81 45 c-314 171 -603 256 -871 257 -210 1 -342 -32 -699
-171 -72 -28 -131 -49 -132 -48 -1 1 13 27 32 57 18 30 69 133 113 228 87 189
138 268 227 352 107 101 171 142 494 310 107 56 227 123 265 149 l70 47 39
-28 c61 -44 126 -31 126 25 -1 57 -104 198 -171 232 -85 44 -126 -21 -75 -118
23 -42 23 -46 8 -60 -48 -40 -139 -93 -352 -202 -238 -122 -340 -184 -417
-250 -55 -47 -140 -175 -233 -352 -41 -78 -76 -141 -77 -139 -2 2 2 27 8 56
21 99 7 276 -36 450 -30 121 -39 175 -39 245 0 121 20 162 93 188 99 35 151
115 99 151 -64 45 -283 -29 -319 -108 -14 -31 3 -64 37 -72 17 -4 23 -11 19
-23 -16 -51 -25 -132 -20 -176 3 -27 18 -122 32 -210 20 -121 27 -198 27 -315
1 -200 -16 -266 -102 -384 -35 -48 -37 -49 -43 -25 -4 13 -7 39 -8 57 -2 51
-48 179 -83 231 -18 25 -81 104 -140 174 -101 121 -168 228 -168 268 0 11 19
28 52 46 28 15 61 41 72 56 19 26 19 30 5 55 -14 26 -19 27 -91 27 -67 -1 -85
-5 -144 -35 -82 -43 -112 -78 -98 -117 8 -24 17 -29 61 -37 50 -9 52 -11 62
-50 14 -55 56 -120 135 -206 185 -201 246 -322 246 -484 l0 -84 -32 -11 c-18
-6 -53 -29 -78 -51 -25 -22 -112 -90 -195 -151 -171 -127 -322 -253 -476 -395
-87 -81 -138 -118 -285 -206 -374 -222 -683 -354 -974 -415 -170 -35 -393 -37
-515 -4 -496 134 -916 741 -1145 1650 -59 238 -78 364 -85 581 -6 183 -22 467
-41 712 -6 74 -4 89 10 104 11 10 15 25 12 38 -10 39 151 305 271 448 95 113
195 191 314 247 l61 29 35 -24 c38 -26 91 -32 111 -12 20 20 13 72 -16 119
-38 60 -126 136 -170 149 -46 12 -82 -8 -82 -46 0 -27 33 -99 51 -110 6 -4
-14 -20 -49 -39 -195 -104 -329 -246 -529 -561 -39 -62 11 219 68 385 43 124
147 331 223 444 165 247 386 465 642 637 l87 58 44 -20 c41 -18 46 -18 69 -4
42 28 27 94 -42 174 -69 81 -167 125 -202 90 -21 -21 -13 -73 19 -121 17 -26
35 -50 40 -53 6 -3 -28 -32 -74 -63 -358 -244 -629 -549 -797 -896 -59 -122
-132 -325 -145 -402 -4 -24 -11 -43 -16 -43 -5 0 -9 4 -9 9 0 5 -41 71 -91
147 -206 312 -232 428 -210 913 7 152 9 317 5 366 l-7 91 43 19 c78 35 90 94
24 121 -32 13 -99 16 -154 7z m97 -69 c-3 -3 -12 -4 -19 -1 -8 3 -5 6 6 6 11
1 17 -2 13 -5z m-107 -14 c0 -5 -12 -10 -27 -10 -22 0 -25 2 -13 10 20 13 40
13 40 0z m1499 -114 c18 -19 28 -36 23 -40 -9 -5 -72 56 -72 69 0 13 19 2 49
-29z m-2079 -841 c0 -8 -4 -15 -10 -15 -5 0 -7 7 -4 15 4 8 8 15 10 15 2 0 4
-7 4 -15z m1750 -197 c0 -19 -30 -5 -49 21 -30 42 -26 46 14 14 19 -15 35 -31
35 -35z m-1730 -578 c0 -11 -4 -20 -10 -20 -5 0 -10 9 -10 20 0 11 5 20 10 20
6 0 10 -9 10 -20z m-30 -125 c0 -8 -4 -15 -10 -15 -5 0 -7 7 -4 15 4 8 8 15
10 15 2 0 4 -7 4 -15z m6393 -629 c-6 -14 -16 -10 -32 14 l-16 25 25 -16 c14
-9 24 -19 23 -23z m-1108 4 c-3 -5 -13 -10 -21 -10 -8 0 -14 5 -14 10 0 6 9
10 21 10 11 0 17 -4 14 -10z m-135 -40 c0 -5 -5 -10 -11 -10 -5 0 -7 5 -4 10
3 6 8 10 11 10 2 0 4 -4 4 -10z m1315 -51 c11 -17 -1 -21 -15 -4 -8 9 -8 15
-2 15 6 0 14 -5 17 -11z m-10418 -272 c-5 -14 -96 -51 -105 -43 -2 3 20 18 49
35 55 31 66 32 56 8z m8579 -42 c-23 -17 -36 -19 -36 -6 0 5 8 12 18 14 32 9
37 6 18 -8z m-126 -45 c0 -5 -7 -10 -16 -10 -8 0 -12 5 -9 10 3 6 10 10 16 10
5 0 9 -4 9 -10z m-3350 -590 c89 -337 222 -662 374 -918 172 -288 373 -494
599 -613 295 -154 666 -138 1142 51 118 46 359 163 483 234 35 20 66 36 68 36
2 0 -38 -51 -90 -114 -293 -357 -477 -715 -556 -1081 -31 -144 -39 -421 -16
-568 67 -423 303 -786 707 -1088 60 -45 109 -83 109 -84 0 -2 -21 3 -47 11
-215 66 -572 141 -849 179 -157 22 -486 30 -613 16 -368 -43 -579 -198 -720
-528 -94 -219 -137 -468 -157 -912 l-6 -144 -34 110 c-176 583 -490 923 -969
1051 -167 45 -268 56 -505 56 -294 0 -520 -32 -835 -120 -71 -20 -139 -39
-150 -41 -11 -3 14 18 55 47 426 297 674 611 729 924 65 366 -143 835 -566
1277 -151 158 -394 370 -578 506 -25 19 -11 16 95 -18 636 -203 1178 -222
1525 -53 189 92 350 272 480 539 150 308 251 768 272 1243 3 79 9 139 13 135
3 -4 21 -64 40 -133z m-4270 6 c0 -13 -49 -36 -74 -36 -9 1 62 50 72 50 1 0 2
-6 2 -14z m10186 -320 c-7 -46 -20 -65 -31 -46 -7 11 25 104 33 96 2 -3 1 -25
-2 -50z m-1061 -233 c-4 -19 -9 -23 -17 -15 -8 8 -7 20 3 44 10 25 14 29 17
15 2 -10 1 -30 -3 -44z m-10575 -68 c0 -8 -4 -15 -10 -15 -5 0 -10 7 -10 15 0
8 5 15 10 15 6 0 10 -7 10 -15z m-21 -107 c0 -7 -4 -22 -9 -33 -7 -17 -9 -15
-9 13 -1 17 4 32 9 32 6 0 10 -6 9 -12z m721 -868 c0 -6 -9 -5 -20 2 -11 7
-20 16 -20 21 0 4 9 3 20 -3 11 -6 20 -15 20 -20z m110 -60 c0 -5 -7 -7 -15
-4 -8 4 -15 8 -15 10 0 2 7 4 15 4 8 0 15 -4 15 -10z m614 -166 c17 -6 22 -24
8 -24 -5 0 -17 7 -28 15 -19 15 -8 20 20 9z m116 -74 c0 -5 -4 -10 -9 -10 -6
0 -13 5 -16 10 -3 6 1 10 9 10 9 0 16 -4 16 -10z m8419 -1739 c8 -5 9 -11 3
-15 -5 -3 -15 1 -22 9 -14 16 -3 20 19 6z m130 -68 c2 -2 -5 -3 -17 -3 -14 0
-22 6 -22 16 0 14 3 15 18 3 9 -7 19 -15 21 -16z m616 -123 c3 -5 -1 -10 -9
-10 -8 0 -18 5 -21 10 -3 6 1 10 9 10 8 0 18 -4 21 -10z m120 -60 c3 -5 -1
-10 -9 -10 -9 0 -16 5 -16 10 0 6 4 10 9 10 6 0 13 -4 16 -10z m775 -785 c0
-14 -4 -25 -10 -25 -11 0 -14 33 -3 43 11 11 13 8 13 -18z m-10 -112 c0 -5 -5
-15 -10 -23 -8 -12 -10 -11 -10 8 0 12 5 22 10 22 6 0 10 -3 10 -7z m-10290
-195 c-1 -7 -7 -26 -15 -43 l-13 -30 -1 27 c-1 14 2 33 5 42 7 19 24 21 24 4z
m-1068 -249 c-17 -37 -20 -40 -21 -19 -1 14 4 43 10 65 11 36 13 38 21 19 7
-16 5 -33 -10 -65z m10018 -253 c0 -2 -18 -16 -40 -31 -39 -27 -60 -29 -45 -5
10 17 85 49 85 36z m874 -621 c-10 -9 -31 -22 -46 -30 -25 -14 -28 -14 -28 0
0 9 18 24 42 35 47 21 62 18 32 -5z m-8319 -15 c-3 -5 -10 -10 -16 -10 -5 0
-9 5 -9 10 0 6 7 10 16 10 8 0 12 -4 9 -10z m-115 -40 c0 -5 -10 -10 -22 -10
-19 0 -20 2 -8 10 19 13 30 13 30 0z m-1854 -327 c-7 -7 -26 7 -26 19 0 6 6 6
15 -2 9 -7 13 -15 11 -17z m89 -111 c-8 -9 -45 30 -38 41 4 6 14 1 25 -13 10
-12 16 -25 13 -28z m1104 27 c-8 -5 -21 -9 -29 -9 -12 1 -11 4 4 15 10 8 23
12 29 8 5 -3 3 -9 -4 -14z m5248 -401 c-3 -7 -5 -2 -5 12 0 14 2 19 5 13 2 -7
2 -19 0 -25z m6 -128 c-3 -11 -7 -20 -9 -20 -2 0 -4 9 -4 20 0 11 4 20 9 20 5
0 7 -9 4 -20z m164 -612 c-3 -8 -6 -5 -6 6 -1 11 2 17 5 13 3 -3 4 -12 1 -19z
m0 -150 c-3 -7 -5 -2 -5 12 0 14 2 19 5 13 2 -7 2 -19 0 -25z m-1703 -159 c15
-12 25 -23 23 -26 -8 -7 -76 30 -71 39 8 13 19 10 48 -13z m1376 -864 c0 -10
-41 -25 -52 -19 -8 5 -5 10 8 15 22 9 44 11 44 4z m-135 -55 c-3 -5 -11 -10
-16 -10 -6 0 -7 5 -4 10 3 6 11 10 16 10 6 0 7 -4 4 -10z m-1385 -146 c17 -15
29 -28 26 -31 -5 -6 -83 34 -91 47 -13 21 35 9 65 -16z"/>
<path d="M5960 6824 c-373 -32 -623 -120 -710 -253 -80 -120 -5 -248 197 -337
265 -118 764 -141 1108 -53 300 77 444 225 366 377 -56 110 -273 208 -541 246
-109 16 -342 27 -420 20z"/>
</g>
</svg>
