<svg width="50" height="50" viewBox="0 0 50 50" fill="none" xmlns="http://www.w3.org/2000/svg">
<mask id="path-1-outside-1_16_1188" maskUnits="userSpaceOnUse" x="0" y="0" width="50" height="50" fill="black">
<rect fill="white" width="50" height="50"/>
<path fill-rule="evenodd" clip-rule="evenodd" d="M49 25.0678C49 25.6189 49 26.17 49 26.7211C46.8061 26.9891 45.9968 28.0501 44.625 29.0485C44.6303 29.0699 44.6356 29.0913 44.641 29.1127C45.1538 29.0859 45.6666 29.0592 46.1795 29.0324C47.0641 29.1608 48.3526 29.3406 48.7756 29.9473C48.5785 30.4273 48.5865 31.1432 48.2949 31.5364C47.907 31.5765 47.4711 31.1175 47.141 30.9746C46.4567 30.6777 45.4407 30.7242 44.641 30.8623C42.8156 31.1769 41.9663 32.6504 40.4743 33.2539C39.8877 33.4914 38.9246 33.7707 38.0864 33.6712C37.5683 33.5963 37.0501 33.5214 36.5319 33.4465C36.9806 33.805 37.4294 34.1634 37.8781 34.5219C39.4935 35.7193 40.9727 37.0114 43.1185 37.7C43.8253 37.9263 44.6522 37.7803 45.5064 37.9087C45.5737 38.1751 45.2019 38.5058 45.0576 38.6952C44.8226 39.0002 44.5876 39.3051 44.3525 39.6101C43.4855 39.9648 40.8044 38.6647 40.298 38.3581C39.0191 37.5829 37.8749 36.7305 36.6922 35.8702C35.2274 34.8044 34.12 33.5685 32.2049 32.9008C30.3636 32.2587 28.3315 33.1287 26.3395 32.8686C23.2465 32.4658 21.0013 30.1512 19.6407 27.957C19.4858 27.5343 19.3309 27.1117 19.176 26.689C19.1706 26.689 19.1653 26.689 19.1599 26.689C19.1493 26.6943 19.1386 26.6997 19.1279 26.705C18.8683 28.5798 19.7593 30.042 20.4901 31.087C22.4597 33.9039 25.0045 35.9729 28.7273 37.0259C30.2231 37.3469 31.7188 37.6679 33.2146 37.9889C36.5944 38.7931 39.814 39.1623 41.3076 41.8252C41.4502 42.0804 41.689 42.2569 41.7563 42.6117C41.5929 42.7513 40.564 43.7288 40.3781 43.671C40.111 43.2163 39.8439 42.7615 39.5768 42.3067C38.8621 41.3805 37.221 40.4287 35.7787 40.3003C35.7787 40.3057 35.7787 40.311 35.7787 40.3164C36.0351 40.6481 36.2915 40.9798 36.5479 41.3115C37.5415 42.777 38.8524 46.0097 36.1793 46.5442C36.158 46.5281 36.1366 46.5121 36.1152 46.496C36.0063 45.7143 36.0832 44.8251 35.8909 44.0081C35.0223 40.3196 31.2001 39.2361 27.4613 38.4063C27.4437 38.7112 28.5126 39.8156 28.7273 40.1398C29.8059 41.769 30.7049 43.4864 31.2594 45.6614C31.3289 46.266 31.3983 46.8706 31.4678 47.4751C31.4838 47.7427 31.4998 48.0102 31.5158 48.2777C31.3652 48.5313 30.1601 48.7769 29.8492 48.7753C29.8118 48.0583 29.7744 47.3414 29.737 46.6244C29.6034 46.068 29.4699 45.5116 29.3363 44.9551C28.5847 42.6454 27.1664 40.7947 25.7626 39.1125C24.9025 38.2779 24.0425 37.4432 23.1824 36.6086C22.9917 36.3774 20.0253 33.4144 20.0253 33.4144C19.3346 34.2555 18.7994 35.6294 18.551 36.8493C18.357 37.7995 18.1695 38.8268 18.567 39.7546C18.9436 40.6326 19.6776 41.1558 20.426 41.6646C22.3683 42.9824 25.2097 45.7898 25.2017 49C24.6408 49 24.0799 49 23.519 49C23.434 47.6597 22.0622 44.9375 21.1471 44.6341C21.1418 44.6341 21.1365 44.6341 21.1311 44.6341C21.1664 46.2697 21.1503 47.6549 20.3939 48.695C19.9917 48.7608 18.9195 48.5169 18.6631 48.2938C18.6578 48.2724 18.6525 48.251 18.6471 48.2295C20.0478 46.626 19.3683 44.0402 18.4388 42.4833C17.9836 41.7224 17.2673 41.1639 16.9163 40.2843C16.6503 39.6149 16.5061 38.5989 16.6279 37.7C16.692 37.2773 16.7561 36.8547 16.8202 36.432C16.7988 36.4373 16.7774 36.4427 16.7561 36.448C15.0461 38.5202 13.1807 40.7192 12.381 43.655C12.2143 44.2665 12.4051 44.9022 12.3169 45.5009C12.3062 45.5062 12.2955 45.5116 12.2849 45.5169C11.7293 45.1317 11.1737 44.7465 10.6182 44.3612C10.2736 43.4431 11.8874 40.326 12.2208 39.7706C13.0167 38.6524 13.8127 37.5342 14.6086 36.4159C15.4788 35.2249 16.7192 34.2298 17.2048 32.66C17.474 31.7916 17.7513 30.5733 17.5894 29.4177C17.4612 28.5011 17.2128 27.2925 17.4131 26.2395C17.9163 23.5927 20.0269 20.994 21.9645 19.787C22.488 19.573 23.0115 19.359 23.535 19.145C23.5296 19.1289 23.5243 19.1129 23.519 19.0968C21.7289 18.8191 20.434 19.6891 19.4324 20.3167C16.2513 22.3086 13.849 25.4113 12.9579 29.6584C12.3922 32.3566 12.0076 35.127 11.2272 37.6037C10.8089 38.9295 8.47072 42.7545 7.10853 41.1029C6.92156 40.8781 6.73459 40.6534 6.54762 40.4287C7.01237 40.1612 7.47712 39.8937 7.94187 39.6262C8.5813 39.1607 10.0685 36.8188 9.96112 35.7739C9.94509 35.7685 9.92907 35.7632 9.91304 35.7578C8.61655 36.6888 4.50914 39.5507 3.74311 36.2073C3.74845 36.1912 3.75379 36.1752 3.75913 36.1591C4.72709 35.9456 5.83287 36.1302 6.69185 35.7739C9.78964 34.4882 10.4114 32.5797 11.3393 29.1448C11.5263 28.5509 11.7133 27.957 11.9002 27.3631C11.8896 27.3578 11.8789 27.3524 11.8682 27.3471C11.8468 27.3524 11.8255 27.3578 11.8041 27.3631C11.147 27.8768 10.49 28.3904 9.83291 28.904C8.40982 29.8077 6.85051 30.6921 5.00914 31.1512C4.59247 31.2555 2.35848 31.7435 1.93219 31.5364C1.67738 31.4128 1.79437 30.8831 1.6918 30.5894C1.62289 30.392 1.45622 30.1014 1.53154 29.851C2.71906 29.6424 3.70785 29.7563 4.72068 29.514C10.4082 28.1512 12.8073 23.1561 16.8362 20.1241C16.8309 20.092 16.8255 20.0599 16.8202 20.0278C15.3714 19.0406 12.1374 17.4885 9.99317 18.8079C9.31207 19.2268 8.79925 20.0518 8.32649 20.6859C7.4002 21.9298 6.18864 23.063 4.94504 23.9924C3.87291 24.7949 2.67739 24.872 1.1309 25.2444C0.924165 25.0855 0.996281 23.7693 1.11487 23.4948C1.58496 23.4413 2.05505 23.3878 2.52514 23.3343C3.39855 23.063 5.24152 21.8656 5.61813 21.1353C5.61278 21.1299 5.60744 21.1246 5.6021 21.1192C5.59676 21.1139 5.59142 21.1085 5.58607 21.1032C3.9258 21.1899 2.64534 21.0663 1.51552 20.3969C1.51872 19.8962 1.70302 19.0567 1.93219 18.7116C2.70624 18.8641 3.28958 19.4018 4.36811 19.5302C6.93224 19.8352 8.30085 17.4805 10.0573 16.8818C10.6663 16.6747 11.5605 16.4596 12.365 16.5928C12.8351 16.6784 13.3052 16.7641 13.7753 16.8497C13.7806 16.8336 13.7859 16.8176 13.7913 16.8015C13.4067 16.5019 13.0221 16.2023 12.6374 15.9026C10.7095 14.4629 9.05566 13.1884 6.45147 12.3393C5.89056 12.3286 5.32966 12.3179 4.76876 12.3072C4.76342 12.3018 4.75807 12.2965 4.75273 12.2911C4.84408 11.8128 5.56043 10.8578 5.92262 10.5897C9.49958 11.1724 11.5044 12.922 13.8874 14.6507C15.0333 15.4805 15.9708 16.633 17.4291 17.1546C19.5622 17.9187 22.3843 17.0294 24.6728 17.5399C26.7273 17.9973 29.4549 20.1241 30.378 21.7292C30.6237 22.2856 30.8695 22.8421 31.1152 23.3985C31.1366 23.3878 31.1579 23.3771 31.1793 23.3664C31.1953 21.1738 30.2899 20.0695 29.4645 18.7597C26.9901 14.832 22.8266 13.4902 17.5413 12.3232C14.0605 11.5544 10.9852 11.2189 9.20791 8.79201C8.97393 8.47259 8.60213 8.13873 8.55085 7.65238C8.84412 7.35222 9.35855 6.59622 9.83291 6.54485C10.6775 8.20454 11.5925 9.00709 13.4547 9.65877C13.802 9.77112 14.1492 9.88348 14.4964 9.99584C14.5018 9.99049 14.5071 9.98514 14.5125 9.97979C14.5125 9.94769 14.5125 9.91558 14.5125 9.88348C13.6519 8.61384 12.889 7.69893 12.5894 5.83861C12.5306 5.44268 12.4718 5.04675 12.4131 4.65082C12.9473 4.3512 13.4815 4.05158 14.0156 3.75196C14.0317 3.76801 14.0477 3.78407 14.0637 3.80012C13.8602 7.82573 16.3618 9.93966 19.2401 10.975C19.8918 11.1034 20.5435 11.2318 21.1952 11.3602C21.7561 11.526 22.317 11.6919 22.8779 11.8578C22.8833 11.8257 22.8886 11.7936 22.8939 11.7615C21.2433 10.3441 19.9997 7.83376 19.2401 5.56574C18.9772 4.77923 19.0093 4.0778 18.8394 3.15807C18.7801 2.83866 18.6615 2.26403 18.7753 1.87399C19.3095 1.76163 19.8437 1.64927 20.3779 1.53691C20.3886 1.54761 20.3993 1.55831 20.41 1.56901C20.6471 2.92052 20.5574 4.11953 20.8587 5.22866C21.9244 9.15155 25.785 12.7309 28.5831 15.0519C29.1333 15.6512 29.6836 16.2504 30.2338 16.8497C30.7803 16.1113 31.1601 15.1145 31.4838 14.1852C31.9341 12.8899 32.1681 10.9525 31.3556 9.83533C30.7626 9.33774 30.1697 8.84016 29.5767 8.34258C27.8315 7.03441 24.7578 4.18855 25.0414 1.03933C25.4437 1.0313 26.6248 0.899684 26.7722 1.16774C26.5526 2.51763 28.2898 5.36349 29.112 5.62994C29.1173 5.62459 29.1226 5.61924 29.128 5.61389C29.1072 3.95742 29.0735 2.54171 29.8652 1.55296C30.3476 1.45505 31.2274 1.72953 31.5479 1.93819C31.4966 2.68296 30.5383 3.43415 30.6985 4.61872C30.8876 6.01998 31.3428 7.04886 31.9646 8.0055C32.487 8.80966 33.2034 9.36824 33.487 10.4613C33.7915 11.6347 33.4021 12.747 33.3748 13.8321C33.3802 13.8321 33.3855 13.8321 33.3909 13.8321C33.721 13.702 33.8652 13.2526 34.0639 12.9813C35.3652 11.2061 37.1217 9.49826 37.7338 7.07454C37.8941 6.44213 37.7371 5.38436 37.9582 4.73108C38.1772 4.88089 38.3962 5.0307 38.6153 5.18051C38.9465 5.42128 39.2777 5.66204 39.6089 5.90281C40.0095 6.81451 38.2242 10.1339 37.9101 10.686C36.5463 13.0857 34.104 14.7823 33.1024 17.4596C32.2466 19.7469 33.2354 22.246 32.7017 24.6023C32.1809 26.8992 29.862 29.6006 27.9902 30.5573C27.4453 30.7339 26.9004 30.9104 26.3555 31.087C26.3555 31.0977 26.3555 31.1084 26.3555 31.1191C28.4421 31.8494 31.1072 29.7114 32.0928 29.0164C35.1457 26.8639 36.7771 23.2861 37.6377 18.9363C38.455 14.8031 38.8813 9.73421 42.5897 8.53519C42.8829 8.88029 43.7291 9.37627 43.5833 9.94769C41.947 10.7535 41.0576 11.7582 40.5223 13.6555C40.4422 13.9444 40.3621 14.2333 40.282 14.5222C40.4582 14.3778 40.6345 14.2333 40.8108 14.0889C41.2371 13.7133 44.5849 11.9781 45.5544 12.4196C45.7468 12.7245 45.9391 13.0295 46.1314 13.3345C46.2542 13.5645 46.3771 13.7946 46.5 14.0247C46.3718 14.0354 46.2436 14.0461 46.1153 14.0568C45.008 14.007 43.806 14.3361 43.0544 14.7149C42.9689 14.7577 42.8835 14.8005 42.798 14.8433C42.766 14.8593 42.7339 14.8754 42.7019 14.8914C42.6912 14.8968 42.6805 14.9021 42.6698 14.9075C42.5897 14.9503 42.5095 14.9931 42.4294 15.0359C42.4027 15.0412 42.376 15.0466 42.3493 15.0519C41.0336 15.8625 39.8909 17.3793 39.3685 18.9684C39.2029 19.7282 39.0373 20.4879 38.8717 21.2477C38.6954 21.8041 38.5191 22.3605 38.3428 22.917C38.3589 22.9223 38.3749 22.9277 38.3909 22.933C38.8557 22.5531 39.3204 22.1733 39.7852 21.7934C41.7002 20.4307 43.6746 19.3617 46.5 18.8881C46.9567 18.8111 47.9487 18.5334 48.407 18.7758C48.5032 19.3215 48.5993 19.8673 48.6955 20.413C48.172 20.4183 47.6485 20.4237 47.125 20.429C46.4839 20.5575 45.8429 20.6859 45.2019 20.8143C41.4743 21.795 38.955 24.6473 36.58 27.0421C35.9176 27.759 35.2552 28.476 34.5928 29.1929C34.1868 29.5407 33.7808 29.8885 33.3748 30.2363C34.4438 30.8735 37.564 32.5894 39.4807 31.8093C40.6105 31.3502 41.2307 30.4915 41.9006 29.5782C43.2836 27.6922 45.7852 25.0598 49 25.0678ZM25.0895 20.734C24.6888 20.7982 24.2882 20.8624 23.8875 20.9266C22.4484 21.5157 20.1696 23.6232 20.8747 25.9185C21.1087 26.6793 21.5991 27.1882 22.0446 27.7323C22.7529 28.5991 23.4581 29.3053 24.9132 29.4337C25.9469 29.5252 26.6376 28.9811 27.2209 28.6151C29.7242 27.0405 30.2161 24.7661 28.1664 22.3391C27.4293 21.4676 26.7193 20.7196 25.0895 20.734Z"/>
</mask>
<path fill-rule="evenodd" clip-rule="evenodd" d="M49 25.0678C49 25.6189 49 26.17 49 26.7211C46.8061 26.9891 45.9968 28.0501 44.625 29.0485C44.6303 29.0699 44.6356 29.0913 44.641 29.1127C45.1538 29.0859 45.6666 29.0592 46.1795 29.0324C47.0641 29.1608 48.3526 29.3406 48.7756 29.9473C48.5785 30.4273 48.5865 31.1432 48.2949 31.5364C47.907 31.5765 47.4711 31.1175 47.141 30.9746C46.4567 30.6777 45.4407 30.7242 44.641 30.8623C42.8156 31.1769 41.9663 32.6504 40.4743 33.2539C39.8877 33.4914 38.9246 33.7707 38.0864 33.6712C37.5683 33.5963 37.0501 33.5214 36.5319 33.4465C36.9806 33.805 37.4294 34.1634 37.8781 34.5219C39.4935 35.7193 40.9727 37.0114 43.1185 37.7C43.8253 37.9263 44.6522 37.7803 45.5064 37.9087C45.5737 38.1751 45.2019 38.5058 45.0576 38.6952C44.8226 39.0002 44.5876 39.3051 44.3525 39.6101C43.4855 39.9648 40.8044 38.6647 40.298 38.3581C39.0191 37.5829 37.8749 36.7305 36.6922 35.8702C35.2274 34.8044 34.12 33.5685 32.2049 32.9008C30.3636 32.2587 28.3315 33.1287 26.3395 32.8686C23.2465 32.4658 21.0013 30.1512 19.6407 27.957C19.4858 27.5343 19.3309 27.1117 19.176 26.689C19.1706 26.689 19.1653 26.689 19.1599 26.689C19.1493 26.6943 19.1386 26.6997 19.1279 26.705C18.8683 28.5798 19.7593 30.042 20.4901 31.087C22.4597 33.9039 25.0045 35.9729 28.7273 37.0259C30.2231 37.3469 31.7188 37.6679 33.2146 37.9889C36.5944 38.7931 39.814 39.1623 41.3076 41.8252C41.4502 42.0804 41.689 42.2569 41.7563 42.6117C41.5929 42.7513 40.564 43.7288 40.3781 43.671C40.111 43.2163 39.8439 42.7615 39.5768 42.3067C38.8621 41.3805 37.221 40.4287 35.7787 40.3003C35.7787 40.3057 35.7787 40.311 35.7787 40.3164C36.0351 40.6481 36.2915 40.9798 36.5479 41.3115C37.5415 42.777 38.8524 46.0097 36.1793 46.5442C36.158 46.5281 36.1366 46.5121 36.1152 46.496C36.0063 45.7143 36.0832 44.8251 35.8909 44.0081C35.0223 40.3196 31.2001 39.2361 27.4613 38.4063C27.4437 38.7112 28.5126 39.8156 28.7273 40.1398C29.8059 41.769 30.7049 43.4864 31.2594 45.6614C31.3289 46.266 31.3983 46.8706 31.4678 47.4751C31.4838 47.7427 31.4998 48.0102 31.5158 48.2777C31.3652 48.5313 30.1601 48.7769 29.8492 48.7753C29.8118 48.0583 29.7744 47.3414 29.737 46.6244C29.6034 46.068 29.4699 45.5116 29.3363 44.9551C28.5847 42.6454 27.1664 40.7947 25.7626 39.1125C24.9025 38.2779 24.0425 37.4432 23.1824 36.6086C22.9917 36.3774 20.0253 33.4144 20.0253 33.4144C19.3346 34.2555 18.7994 35.6294 18.551 36.8493C18.357 37.7995 18.1695 38.8268 18.567 39.7546C18.9436 40.6326 19.6776 41.1558 20.426 41.6646C22.3683 42.9824 25.2097 45.7898 25.2017 49C24.6408 49 24.0799 49 23.519 49C23.434 47.6597 22.0622 44.9375 21.1471 44.6341C21.1418 44.6341 21.1365 44.6341 21.1311 44.6341C21.1664 46.2697 21.1503 47.6549 20.3939 48.695C19.9917 48.7608 18.9195 48.5169 18.6631 48.2938C18.6578 48.2724 18.6525 48.251 18.6471 48.2295C20.0478 46.626 19.3683 44.0402 18.4388 42.4833C17.9836 41.7224 17.2673 41.1639 16.9163 40.2843C16.6503 39.6149 16.5061 38.5989 16.6279 37.7C16.692 37.2773 16.7561 36.8547 16.8202 36.432C16.7988 36.4373 16.7774 36.4427 16.7561 36.448C15.0461 38.5202 13.1807 40.7192 12.381 43.655C12.2143 44.2665 12.4051 44.9022 12.3169 45.5009C12.3062 45.5062 12.2955 45.5116 12.2849 45.5169C11.7293 45.1317 11.1737 44.7465 10.6182 44.3612C10.2736 43.4431 11.8874 40.326 12.2208 39.7706C13.0167 38.6524 13.8127 37.5342 14.6086 36.4159C15.4788 35.2249 16.7192 34.2298 17.2048 32.66C17.474 31.7916 17.7513 30.5733 17.5894 29.4177C17.4612 28.5011 17.2128 27.2925 17.4131 26.2395C17.9163 23.5927 20.0269 20.994 21.9645 19.787C22.488 19.573 23.0115 19.359 23.535 19.145C23.5296 19.1289 23.5243 19.1129 23.519 19.0968C21.7289 18.8191 20.434 19.6891 19.4324 20.3167C16.2513 22.3086 13.849 25.4113 12.9579 29.6584C12.3922 32.3566 12.0076 35.127 11.2272 37.6037C10.8089 38.9295 8.47072 42.7545 7.10853 41.1029C6.92156 40.8781 6.73459 40.6534 6.54762 40.4287C7.01237 40.1612 7.47712 39.8937 7.94187 39.6262C8.5813 39.1607 10.0685 36.8188 9.96112 35.7739C9.94509 35.7685 9.92907 35.7632 9.91304 35.7578C8.61655 36.6888 4.50914 39.5507 3.74311 36.2073C3.74845 36.1912 3.75379 36.1752 3.75913 36.1591C4.72709 35.9456 5.83287 36.1302 6.69185 35.7739C9.78964 34.4882 10.4114 32.5797 11.3393 29.1448C11.5263 28.5509 11.7133 27.957 11.9002 27.3631C11.8896 27.3578 11.8789 27.3524 11.8682 27.3471C11.8468 27.3524 11.8255 27.3578 11.8041 27.3631C11.147 27.8768 10.49 28.3904 9.83291 28.904C8.40982 29.8077 6.85051 30.6921 5.00914 31.1512C4.59247 31.2555 2.35848 31.7435 1.93219 31.5364C1.67738 31.4128 1.79437 30.8831 1.6918 30.5894C1.62289 30.392 1.45622 30.1014 1.53154 29.851C2.71906 29.6424 3.70785 29.7563 4.72068 29.514C10.4082 28.1512 12.8073 23.1561 16.8362 20.1241C16.8309 20.092 16.8255 20.0599 16.8202 20.0278C15.3714 19.0406 12.1374 17.4885 9.99317 18.8079C9.31207 19.2268 8.79925 20.0518 8.32649 20.6859C7.4002 21.9298 6.18864 23.063 4.94504 23.9924C3.87291 24.7949 2.67739 24.872 1.1309 25.2444C0.924165 25.0855 0.996281 23.7693 1.11487 23.4948C1.58496 23.4413 2.05505 23.3878 2.52514 23.3343C3.39855 23.063 5.24152 21.8656 5.61813 21.1353C5.61278 21.1299 5.60744 21.1246 5.6021 21.1192C5.59676 21.1139 5.59142 21.1085 5.58607 21.1032C3.9258 21.1899 2.64534 21.0663 1.51552 20.3969C1.51872 19.8962 1.70302 19.0567 1.93219 18.7116C2.70624 18.8641 3.28958 19.4018 4.36811 19.5302C6.93224 19.8352 8.30085 17.4805 10.0573 16.8818C10.6663 16.6747 11.5605 16.4596 12.365 16.5928C12.8351 16.6784 13.3052 16.7641 13.7753 16.8497C13.7806 16.8336 13.7859 16.8176 13.7913 16.8015C13.4067 16.5019 13.0221 16.2023 12.6374 15.9026C10.7095 14.4629 9.05566 13.1884 6.45147 12.3393C5.89056 12.3286 5.32966 12.3179 4.76876 12.3072C4.76342 12.3018 4.75807 12.2965 4.75273 12.2911C4.84408 11.8128 5.56043 10.8578 5.92262 10.5897C9.49958 11.1724 11.5044 12.922 13.8874 14.6507C15.0333 15.4805 15.9708 16.633 17.4291 17.1546C19.5622 17.9187 22.3843 17.0294 24.6728 17.5399C26.7273 17.9973 29.4549 20.1241 30.378 21.7292C30.6237 22.2856 30.8695 22.8421 31.1152 23.3985C31.1366 23.3878 31.1579 23.3771 31.1793 23.3664C31.1953 21.1738 30.2899 20.0695 29.4645 18.7597C26.9901 14.832 22.8266 13.4902 17.5413 12.3232C14.0605 11.5544 10.9852 11.2189 9.20791 8.79201C8.97393 8.47259 8.60213 8.13873 8.55085 7.65238C8.84412 7.35222 9.35855 6.59622 9.83291 6.54485C10.6775 8.20454 11.5925 9.00709 13.4547 9.65877C13.802 9.77112 14.1492 9.88348 14.4964 9.99584C14.5018 9.99049 14.5071 9.98514 14.5125 9.97979C14.5125 9.94769 14.5125 9.91558 14.5125 9.88348C13.6519 8.61384 12.889 7.69893 12.5894 5.83861C12.5306 5.44268 12.4718 5.04675 12.4131 4.65082C12.9473 4.3512 13.4815 4.05158 14.0156 3.75196C14.0317 3.76801 14.0477 3.78407 14.0637 3.80012C13.8602 7.82573 16.3618 9.93966 19.2401 10.975C19.8918 11.1034 20.5435 11.2318 21.1952 11.3602C21.7561 11.526 22.317 11.6919 22.8779 11.8578C22.8833 11.8257 22.8886 11.7936 22.8939 11.7615C21.2433 10.3441 19.9997 7.83376 19.2401 5.56574C18.9772 4.77923 19.0093 4.0778 18.8394 3.15807C18.7801 2.83866 18.6615 2.26403 18.7753 1.87399C19.3095 1.76163 19.8437 1.64927 20.3779 1.53691C20.3886 1.54761 20.3993 1.55831 20.41 1.56901C20.6471 2.92052 20.5574 4.11953 20.8587 5.22866C21.9244 9.15155 25.785 12.7309 28.5831 15.0519C29.1333 15.6512 29.6836 16.2504 30.2338 16.8497C30.7803 16.1113 31.1601 15.1145 31.4838 14.1852C31.9341 12.8899 32.1681 10.9525 31.3556 9.83533C30.7626 9.33774 30.1697 8.84016 29.5767 8.34258C27.8315 7.03441 24.7578 4.18855 25.0414 1.03933C25.4437 1.0313 26.6248 0.899684 26.7722 1.16774C26.5526 2.51763 28.2898 5.36349 29.112 5.62994C29.1173 5.62459 29.1226 5.61924 29.128 5.61389C29.1072 3.95742 29.0735 2.54171 29.8652 1.55296C30.3476 1.45505 31.2274 1.72953 31.5479 1.93819C31.4966 2.68296 30.5383 3.43415 30.6985 4.61872C30.8876 6.01998 31.3428 7.04886 31.9646 8.0055C32.487 8.80966 33.2034 9.36824 33.487 10.4613C33.7915 11.6347 33.4021 12.747 33.3748 13.8321C33.3802 13.8321 33.3855 13.8321 33.3909 13.8321C33.721 13.702 33.8652 13.2526 34.0639 12.9813C35.3652 11.2061 37.1217 9.49826 37.7338 7.07454C37.8941 6.44213 37.7371 5.38436 37.9582 4.73108C38.1772 4.88089 38.3962 5.0307 38.6153 5.18051C38.9465 5.42128 39.2777 5.66204 39.6089 5.90281C40.0095 6.81451 38.2242 10.1339 37.9101 10.686C36.5463 13.0857 34.104 14.7823 33.1024 17.4596C32.2466 19.7469 33.2354 22.246 32.7017 24.6023C32.1809 26.8992 29.862 29.6006 27.9902 30.5573C27.4453 30.7339 26.9004 30.9104 26.3555 31.087C26.3555 31.0977 26.3555 31.1084 26.3555 31.1191C28.4421 31.8494 31.1072 29.7114 32.0928 29.0164C35.1457 26.8639 36.7771 23.2861 37.6377 18.9363C38.455 14.8031 38.8813 9.73421 42.5897 8.53519C42.8829 8.88029 43.7291 9.37627 43.5833 9.94769C41.947 10.7535 41.0576 11.7582 40.5223 13.6555C40.4422 13.9444 40.3621 14.2333 40.282 14.5222C40.4582 14.3778 40.6345 14.2333 40.8108 14.0889C41.2371 13.7133 44.5849 11.9781 45.5544 12.4196C45.7468 12.7245 45.9391 13.0295 46.1314 13.3345C46.2542 13.5645 46.3771 13.7946 46.5 14.0247C46.3718 14.0354 46.2436 14.0461 46.1153 14.0568C45.008 14.007 43.806 14.3361 43.0544 14.7149C42.9689 14.7577 42.8835 14.8005 42.798 14.8433C42.766 14.8593 42.7339 14.8754 42.7019 14.8914C42.6912 14.8968 42.6805 14.9021 42.6698 14.9075C42.5897 14.9503 42.5095 14.9931 42.4294 15.0359C42.4027 15.0412 42.376 15.0466 42.3493 15.0519C41.0336 15.8625 39.8909 17.3793 39.3685 18.9684C39.2029 19.7282 39.0373 20.4879 38.8717 21.2477C38.6954 21.8041 38.5191 22.3605 38.3428 22.917C38.3589 22.9223 38.3749 22.9277 38.3909 22.933C38.8557 22.5531 39.3204 22.1733 39.7852 21.7934C41.7002 20.4307 43.6746 19.3617 46.5 18.8881C46.9567 18.8111 47.9487 18.5334 48.407 18.7758C48.5032 19.3215 48.5993 19.8673 48.6955 20.413C48.172 20.4183 47.6485 20.4237 47.125 20.429C46.4839 20.5575 45.8429 20.6859 45.2019 20.8143C41.4743 21.795 38.955 24.6473 36.58 27.0421C35.9176 27.759 35.2552 28.476 34.5928 29.1929C34.1868 29.5407 33.7808 29.8885 33.3748 30.2363C34.4438 30.8735 37.564 32.5894 39.4807 31.8093C40.6105 31.3502 41.2307 30.4915 41.9006 29.5782C43.2836 27.6922 45.7852 25.0598 49 25.0678ZM25.0895 20.734C24.6888 20.7982 24.2882 20.8624 23.8875 20.9266C22.4484 21.5157 20.1696 23.6232 20.8747 25.9185C21.1087 26.6793 21.5991 27.1882 22.0446 27.7323C22.7529 28.5991 23.4581 29.3053 24.9132 29.4337C25.9469 29.5252 26.6376 28.9811 27.2209 28.6151C29.7242 27.0405 30.2161 24.7661 28.1664 22.3391C27.4293 21.4676 26.7193 20.7196 25.0895 20.734Z" stroke="#DDDDDD" stroke-width="2" mask="url(#path-1-outside-1_16_1188)"/>
</svg>
