<svg width="741" height="741" viewBox="0 0 741 741" fill="none" xmlns="http://www.w3.org/2000/svg">
<mask id="path-1-outside-1_16_696" maskUnits="userSpaceOnUse" x="0" y="0" width="741" height="741" fill="black">
<rect fill="white" width="741" height="741"/>
<path fill-rule="evenodd" clip-rule="evenodd" d="M735 371.53C735 379.9 735 388.269 735 396.639C701.68 400.71 689.388 416.824 668.554 431.986C668.635 432.311 668.716 432.636 668.797 432.961C676.586 432.555 684.374 432.149 692.163 431.743C705.598 433.693 725.167 436.423 731.592 445.638C728.599 452.927 728.72 463.799 724.291 469.772C718.401 470.381 711.78 463.409 706.766 461.24C696.374 456.73 680.943 457.437 668.797 459.533C641.075 464.311 628.175 486.69 605.515 495.856C596.607 499.464 581.979 503.705 569.25 502.194C561.38 501.056 553.511 499.919 545.641 498.781C552.456 504.225 559.271 509.67 566.086 515.114C590.62 533.3 613.085 552.924 645.675 563.382C656.409 566.819 668.968 564.601 681.94 566.551C682.963 570.597 677.316 575.619 675.126 578.496C671.556 583.127 667.986 587.759 664.416 592.391C651.249 597.778 610.529 578.033 602.838 573.377C583.415 561.602 566.037 548.658 548.075 535.591C525.829 519.404 509.011 500.634 479.925 490.493C451.959 480.742 421.097 493.954 390.844 490.005C343.869 483.886 309.77 448.734 289.106 415.41C286.753 408.99 284.4 402.571 282.047 396.151C281.966 396.151 281.885 396.151 281.804 396.151C281.642 396.233 281.48 396.314 281.317 396.395C277.374 424.868 290.907 447.076 302.006 462.946C331.918 505.729 370.569 537.151 427.109 553.143C449.826 558.019 472.542 562.894 495.259 567.77C546.59 579.983 595.488 585.59 618.172 626.032C620.338 629.908 623.964 632.59 624.987 637.977C622.504 640.098 606.878 654.944 604.055 654.066C599.998 647.159 595.942 640.252 591.885 633.345C581.03 619.28 556.107 604.824 534.202 602.873C534.202 602.955 534.202 603.036 534.202 603.117C538.096 608.155 541.99 613.193 545.884 618.231C560.975 640.488 580.884 689.585 540.286 697.702C539.962 697.458 539.637 697.215 539.313 696.971C537.658 685.099 538.826 671.594 535.905 659.186C522.713 603.166 464.664 586.711 407.881 574.108C407.613 578.74 423.848 595.511 427.109 600.436C443.489 625.179 457.144 651.263 465.565 684.295C466.62 693.477 467.674 702.659 468.729 711.841C468.973 715.904 469.216 719.967 469.459 724.03C467.171 727.882 448.868 731.611 444.147 731.587C443.579 720.698 443.011 709.81 442.443 698.921C440.414 690.47 438.386 682.019 436.358 673.568C424.943 638.489 403.403 610.382 382.081 584.834C369.019 572.158 355.957 559.481 342.895 546.805C339.999 543.295 294.947 498.293 294.947 498.293C284.457 511.067 276.328 531.935 272.555 550.462C269.61 564.893 266.762 580.495 272.799 594.585C278.518 607.92 289.666 615.867 301.032 623.594C330.531 643.608 373.685 686.245 373.563 735C365.044 735 356.525 735 348.007 735C346.717 714.645 325.882 673.3 311.985 668.693C311.904 668.693 311.822 668.693 311.741 668.693C312.277 693.534 312.033 714.572 300.545 730.368C294.436 731.368 278.153 727.662 274.259 724.274C274.178 723.949 274.097 723.624 274.016 723.299C295.288 698.946 284.968 659.673 270.851 636.027C263.939 624.472 253.059 615.989 247.729 602.63C243.689 592.464 241.498 577.033 243.348 563.382C244.322 556.962 245.295 550.543 246.269 544.123C245.944 544.205 245.62 544.286 245.295 544.367C219.325 575.839 190.994 609.236 178.849 653.823C176.318 663.11 179.214 672.764 177.876 681.857C177.713 681.938 177.551 682.019 177.389 682.101C168.951 676.25 160.514 670.399 152.076 664.549C146.843 650.605 171.353 603.263 176.415 594.829C188.504 577.846 200.592 560.863 212.681 543.88C225.897 525.791 244.735 510.677 252.11 486.836C256.199 473.648 260.41 455.145 257.952 437.593C256.004 423.674 252.232 405.317 255.274 389.326C262.917 349.127 294.972 309.66 324.398 291.328C332.348 288.077 340.299 284.827 348.25 281.577C348.169 281.333 348.088 281.089 348.007 280.845C320.82 276.628 301.154 289.841 285.942 299.372C237.628 329.625 201.144 376.747 187.611 441.25C179.02 482.229 173.178 524.304 161.325 561.919C154.972 582.055 119.462 640.147 98.7732 615.062C95.9337 611.649 93.0941 608.236 90.2545 604.824C97.3129 600.761 104.371 596.698 111.43 592.635C121.141 585.565 143.728 549.998 142.097 534.129C141.854 534.047 141.61 533.966 141.367 533.885C121.676 548.024 59.2951 591.489 47.6609 540.711C47.742 540.467 47.8232 540.223 47.9043 539.979C62.6052 536.737 79.3992 539.54 92.445 534.129C139.493 514.602 148.936 485.617 163.029 433.449C165.868 424.429 168.708 415.41 171.547 406.39C171.385 406.309 171.223 406.227 171.061 406.146C170.736 406.227 170.412 406.309 170.087 406.39C160.108 414.191 150.129 421.992 140.15 429.792C118.537 443.517 94.8546 456.949 66.8889 463.921C60.5607 465.506 26.6318 472.916 20.1576 469.772C16.2877 467.895 18.0644 459.85 16.5067 455.389C15.4602 452.39 12.9289 447.978 14.0728 444.175C32.1082 441.006 47.1255 442.737 62.5078 439.056C148.888 418.359 185.323 342.496 246.512 296.447C246.431 295.959 246.35 295.472 246.269 294.984C224.266 279.992 175.15 256.419 142.584 276.457C132.24 282.82 124.451 295.35 117.271 304.979C103.203 323.872 84.8025 341.082 65.9153 355.197C49.6324 367.386 31.4753 368.556 7.98802 374.211C4.84826 371.798 5.94352 351.808 7.74462 347.64C14.8841 346.827 22.0236 346.015 29.1631 345.202C42.428 341.082 70.4181 322.897 76.1378 311.805C76.0566 311.724 75.9755 311.642 75.8944 311.561C75.8133 311.48 75.7321 311.399 75.651 311.317C50.4356 312.634 30.9886 310.757 13.8294 300.591C13.8781 292.985 16.6771 280.236 20.1576 274.995C31.9135 277.311 40.7729 285.477 57.1532 287.427C96.0959 292.059 116.882 256.297 143.557 247.204C152.806 244.059 166.388 240.793 178.606 242.816C185.745 244.116 192.885 245.417 200.024 246.717C200.105 246.473 200.187 246.229 200.268 245.985C194.426 241.435 188.585 236.884 182.743 232.334C153.463 210.467 128.345 191.111 88.7942 178.216C80.2754 178.053 71.7567 177.891 63.238 177.728C63.1569 177.647 63.0757 177.566 62.9946 177.484C64.3819 170.22 75.2616 155.715 80.7622 151.644C135.087 160.493 165.536 187.065 201.728 213.319C219.131 225.923 233.369 243.426 255.518 251.348C287.913 262.952 330.775 249.447 365.531 257.199C396.734 264.147 438.159 296.447 452.178 320.825C455.91 329.275 459.642 337.726 463.374 346.177C463.699 346.015 464.024 345.852 464.348 345.69C464.591 312.39 450.84 295.618 438.305 275.726C400.725 216.074 337.492 195.694 257.221 177.972C204.357 166.295 157.65 161.2 130.658 124.341C127.104 119.49 121.457 114.419 120.679 107.033C125.133 102.474 132.945 90.9925 140.15 90.2125C152.977 115.419 166.874 127.608 195.156 137.505C200.43 139.211 205.703 140.918 210.977 142.624C211.058 142.543 211.139 142.462 211.22 142.381C211.22 141.893 211.22 141.405 211.22 140.918C198.15 121.635 186.565 107.74 182.013 79.4863C181.121 73.4732 180.228 67.46 179.336 61.4469C187.449 56.8964 195.562 52.3459 203.675 47.7954C203.919 48.0392 204.162 48.283 204.405 48.5268C201.314 109.666 239.308 141.771 283.021 157.495C292.919 159.445 302.817 161.395 312.715 163.345C321.234 165.864 329.752 168.383 338.271 170.902C338.352 170.415 338.433 169.927 338.514 169.44C313.445 147.914 294.558 109.788 283.021 75.3421C279.029 63.3971 279.516 52.7441 276.936 38.7757C276.036 33.9246 274.235 25.1974 275.963 19.2737C284.076 17.5672 292.189 15.8608 300.302 14.1544C300.464 14.3169 300.626 14.4794 300.789 14.6419C304.391 35.1678 303.028 53.3779 307.604 70.2228C323.789 129.802 382.422 184.164 424.919 219.414C433.275 228.515 441.631 237.616 449.988 246.717C458.288 235.503 464.056 220.364 468.973 206.25C475.812 186.577 479.365 157.153 467.025 140.187C458.02 132.629 449.014 125.072 440.009 117.515C413.503 97.6476 366.821 54.4262 371.129 6.5973C377.238 6.47542 395.176 4.47645 397.415 8.54751C394.081 29.0491 420.464 72.2706 432.951 76.3172C433.032 76.236 433.113 76.1547 433.194 76.0735C432.877 50.9158 432.366 29.4147 444.39 14.3981C451.716 12.9111 465.078 17.0797 469.946 20.2488C469.167 31.56 454.612 42.9687 457.046 60.9594C459.918 82.241 466.831 97.867 476.274 112.396C484.209 124.609 495.089 133.093 499.397 149.694C504.021 167.514 498.106 184.408 497.693 200.887C497.774 200.887 497.855 200.887 497.936 200.887C502.95 198.912 505.141 192.086 508.159 187.967C527.922 161.005 554.598 135.067 563.895 98.2571C566.329 88.6523 563.944 72.5875 567.303 62.6658C570.629 64.941 573.956 67.2163 577.282 69.4915C582.312 73.1482 587.342 76.8048 592.372 80.4614C598.457 94.3079 571.343 144.721 566.573 153.107C545.86 189.551 508.767 215.318 493.555 255.98C480.558 290.718 495.575 328.674 487.47 364.46C479.56 399.345 444.341 440.372 415.913 454.901C407.638 457.583 399.362 460.264 391.087 462.946C391.087 463.108 391.087 463.271 391.087 463.434C422.777 474.525 463.253 442.054 478.221 431.499C524.588 398.809 549.365 344.471 562.435 278.408C574.848 215.635 581.322 138.651 637.643 120.441C642.097 125.682 654.948 133.215 652.733 141.893C627.883 154.131 614.375 169.391 606.246 198.205C605.029 202.593 603.812 206.981 602.595 211.369C605.272 209.175 607.949 206.981 610.627 204.787C617.101 199.083 667.945 172.731 682.671 179.434C685.591 184.066 688.512 188.698 691.433 193.33C693.299 196.824 695.165 200.318 697.031 203.812C695.084 203.975 693.137 204.137 691.189 204.3C674.371 203.544 656.117 208.541 644.701 214.294C643.403 214.945 642.105 215.595 640.807 216.245C640.32 216.488 639.834 216.732 639.347 216.976C639.185 217.057 639.022 217.138 638.86 217.22C637.643 217.87 636.426 218.52 635.209 219.17C634.804 219.251 634.398 219.332 633.992 219.414C614.01 231.724 596.656 254.761 588.721 278.895C586.206 290.434 583.691 301.973 581.176 313.511C578.499 321.962 575.822 330.413 573.144 338.864C573.388 338.945 573.631 339.026 573.874 339.108C580.933 333.338 587.991 327.569 595.05 321.8C624.135 301.103 654.121 284.868 697.031 277.676C703.968 276.506 719.033 272.289 725.994 275.97C727.455 284.258 728.915 292.547 730.375 300.835C722.425 300.916 714.474 300.997 706.523 301.079C696.787 303.029 687.052 304.979 677.316 306.929C620.703 321.824 582.442 365.143 546.371 401.514C536.311 412.403 526.251 423.292 516.191 434.18C510.025 439.462 503.859 444.744 497.693 450.026C513.927 459.704 561.315 485.763 590.425 473.916C607.584 466.944 617.004 453.902 627.177 440.031C648.182 411.387 686.176 371.408 735 371.53ZM371.859 305.71C365.774 306.686 359.689 307.661 353.605 308.636C331.748 317.582 297.138 349.59 307.847 384.45C311.4 396.005 318.848 403.733 325.615 411.997C336.373 425.161 347.082 435.887 369.182 437.837C384.881 439.227 395.371 430.963 404.23 425.404C442.248 401.49 449.72 366.947 418.59 330.088C407.394 316.851 396.612 305.491 371.859 305.71Z"/>
</mask>
<path fill-rule="evenodd" clip-rule="evenodd" d="M735 371.53C735 379.9 735 388.269 735 396.639C701.68 400.71 689.388 416.824 668.554 431.986C668.635 432.311 668.716 432.636 668.797 432.961C676.586 432.555 684.374 432.149 692.163 431.743C705.598 433.693 725.167 436.423 731.592 445.638C728.599 452.927 728.72 463.799 724.291 469.772C718.401 470.381 711.78 463.409 706.766 461.24C696.374 456.73 680.943 457.437 668.797 459.533C641.075 464.311 628.175 486.69 605.515 495.856C596.607 499.464 581.979 503.705 569.25 502.194C561.38 501.056 553.511 499.919 545.641 498.781C552.456 504.225 559.271 509.67 566.086 515.114C590.62 533.3 613.085 552.924 645.675 563.382C656.409 566.819 668.968 564.601 681.94 566.551C682.963 570.597 677.316 575.619 675.126 578.496C671.556 583.127 667.986 587.759 664.416 592.391C651.249 597.778 610.529 578.033 602.838 573.377C583.415 561.602 566.037 548.658 548.075 535.591C525.829 519.404 509.011 500.634 479.925 490.493C451.959 480.742 421.097 493.954 390.844 490.005C343.869 483.886 309.77 448.734 289.106 415.41C286.753 408.99 284.4 402.571 282.047 396.151C281.966 396.151 281.885 396.151 281.804 396.151C281.642 396.233 281.48 396.314 281.317 396.395C277.374 424.868 290.907 447.076 302.006 462.946C331.918 505.729 370.569 537.151 427.109 553.143C449.826 558.019 472.542 562.894 495.259 567.77C546.59 579.983 595.488 585.59 618.172 626.032C620.338 629.908 623.964 632.59 624.987 637.977C622.504 640.098 606.878 654.944 604.055 654.066C599.998 647.159 595.942 640.252 591.885 633.345C581.03 619.28 556.107 604.824 534.202 602.873C534.202 602.955 534.202 603.036 534.202 603.117C538.096 608.155 541.99 613.193 545.884 618.231C560.975 640.488 580.884 689.585 540.286 697.702C539.962 697.458 539.637 697.215 539.313 696.971C537.658 685.099 538.826 671.594 535.905 659.186C522.713 603.166 464.664 586.711 407.881 574.108C407.613 578.74 423.848 595.511 427.109 600.436C443.489 625.179 457.144 651.263 465.565 684.295C466.62 693.477 467.674 702.659 468.729 711.841C468.973 715.904 469.216 719.967 469.459 724.03C467.171 727.882 448.868 731.611 444.147 731.587C443.579 720.698 443.011 709.81 442.443 698.921C440.414 690.47 438.386 682.019 436.358 673.568C424.943 638.489 403.403 610.382 382.081 584.834C369.019 572.158 355.957 559.481 342.895 546.805C339.999 543.295 294.947 498.293 294.947 498.293C284.457 511.067 276.328 531.935 272.555 550.462C269.61 564.893 266.762 580.495 272.799 594.585C278.518 607.92 289.666 615.867 301.032 623.594C330.531 643.608 373.685 686.245 373.563 735C365.044 735 356.525 735 348.007 735C346.717 714.645 325.882 673.3 311.985 668.693C311.904 668.693 311.822 668.693 311.741 668.693C312.277 693.534 312.033 714.572 300.545 730.368C294.436 731.368 278.153 727.662 274.259 724.274C274.178 723.949 274.097 723.624 274.016 723.299C295.288 698.946 284.968 659.673 270.851 636.027C263.939 624.472 253.059 615.989 247.729 602.63C243.689 592.464 241.498 577.033 243.348 563.382C244.322 556.962 245.295 550.543 246.269 544.123C245.944 544.205 245.62 544.286 245.295 544.367C219.325 575.839 190.994 609.236 178.849 653.823C176.318 663.11 179.214 672.764 177.876 681.857C177.713 681.938 177.551 682.019 177.389 682.101C168.951 676.25 160.514 670.399 152.076 664.549C146.843 650.605 171.353 603.263 176.415 594.829C188.504 577.846 200.592 560.863 212.681 543.88C225.897 525.791 244.735 510.677 252.11 486.836C256.199 473.648 260.41 455.145 257.952 437.593C256.004 423.674 252.232 405.317 255.274 389.326C262.917 349.127 294.972 309.66 324.398 291.328C332.348 288.077 340.299 284.827 348.25 281.577C348.169 281.333 348.088 281.089 348.007 280.845C320.82 276.628 301.154 289.841 285.942 299.372C237.628 329.625 201.144 376.747 187.611 441.25C179.02 482.229 173.178 524.304 161.325 561.919C154.972 582.055 119.462 640.147 98.7732 615.062C95.9337 611.649 93.0941 608.236 90.2545 604.824C97.3129 600.761 104.371 596.698 111.43 592.635C121.141 585.565 143.728 549.998 142.097 534.129C141.854 534.047 141.61 533.966 141.367 533.885C121.676 548.024 59.2951 591.489 47.6609 540.711C47.742 540.467 47.8232 540.223 47.9043 539.979C62.6052 536.737 79.3992 539.54 92.445 534.129C139.493 514.602 148.936 485.617 163.029 433.449C165.868 424.429 168.708 415.41 171.547 406.39C171.385 406.309 171.223 406.227 171.061 406.146C170.736 406.227 170.412 406.309 170.087 406.39C160.108 414.191 150.129 421.992 140.15 429.792C118.537 443.517 94.8546 456.949 66.8889 463.921C60.5607 465.506 26.6318 472.916 20.1576 469.772C16.2877 467.895 18.0644 459.85 16.5067 455.389C15.4602 452.39 12.9289 447.978 14.0728 444.175C32.1082 441.006 47.1255 442.737 62.5078 439.056C148.888 418.359 185.323 342.496 246.512 296.447C246.431 295.959 246.35 295.472 246.269 294.984C224.266 279.992 175.15 256.419 142.584 276.457C132.24 282.82 124.451 295.35 117.271 304.979C103.203 323.872 84.8025 341.082 65.9153 355.197C49.6324 367.386 31.4753 368.556 7.98802 374.211C4.84826 371.798 5.94352 351.808 7.74462 347.64C14.8841 346.827 22.0236 346.015 29.1631 345.202C42.428 341.082 70.4181 322.897 76.1378 311.805C76.0566 311.724 75.9755 311.642 75.8944 311.561C75.8133 311.48 75.7321 311.399 75.651 311.317C50.4356 312.634 30.9886 310.757 13.8294 300.591C13.8781 292.985 16.6771 280.236 20.1576 274.995C31.9135 277.311 40.7729 285.477 57.1532 287.427C96.0959 292.059 116.882 256.297 143.557 247.204C152.806 244.059 166.388 240.793 178.606 242.816C185.745 244.116 192.885 245.417 200.024 246.717C200.105 246.473 200.187 246.229 200.268 245.985C194.426 241.435 188.585 236.884 182.743 232.334C153.463 210.467 128.345 191.111 88.7942 178.216C80.2754 178.053 71.7567 177.891 63.238 177.728C63.1569 177.647 63.0757 177.566 62.9946 177.484C64.3819 170.22 75.2616 155.715 80.7622 151.644C135.087 160.493 165.536 187.065 201.728 213.319C219.131 225.923 233.369 243.426 255.518 251.348C287.913 262.952 330.775 249.447 365.531 257.199C396.734 264.147 438.159 296.447 452.178 320.825C455.91 329.275 459.642 337.726 463.374 346.177C463.699 346.015 464.024 345.852 464.348 345.69C464.591 312.39 450.84 295.618 438.305 275.726C400.725 216.074 337.492 195.694 257.221 177.972C204.357 166.295 157.65 161.2 130.658 124.341C127.104 119.49 121.457 114.419 120.679 107.033C125.133 102.474 132.945 90.9925 140.15 90.2125C152.977 115.419 166.874 127.608 195.156 137.505C200.43 139.211 205.703 140.918 210.977 142.624C211.058 142.543 211.139 142.462 211.22 142.381C211.22 141.893 211.22 141.405 211.22 140.918C198.15 121.635 186.565 107.74 182.013 79.4863C181.121 73.4732 180.228 67.46 179.336 61.4469C187.449 56.8964 195.562 52.3459 203.675 47.7954C203.919 48.0392 204.162 48.283 204.405 48.5268C201.314 109.666 239.308 141.771 283.021 157.495C292.919 159.445 302.817 161.395 312.715 163.345C321.234 165.864 329.752 168.383 338.271 170.902C338.352 170.415 338.433 169.927 338.514 169.44C313.445 147.914 294.558 109.788 283.021 75.3421C279.029 63.3971 279.516 52.7441 276.936 38.7757C276.036 33.9246 274.235 25.1974 275.963 19.2737C284.076 17.5672 292.189 15.8608 300.302 14.1544C300.464 14.3169 300.626 14.4794 300.789 14.6419C304.391 35.1678 303.028 53.3779 307.604 70.2228C323.789 129.802 382.422 184.164 424.919 219.414C433.275 228.515 441.631 237.616 449.988 246.717C458.288 235.503 464.056 220.364 468.973 206.25C475.812 186.577 479.365 157.153 467.025 140.187C458.02 132.629 449.014 125.072 440.009 117.515C413.503 97.6476 366.821 54.4262 371.129 6.5973C377.238 6.47542 395.176 4.47645 397.415 8.54751C394.081 29.0491 420.464 72.2706 432.951 76.3172C433.032 76.236 433.113 76.1547 433.194 76.0735C432.877 50.9158 432.366 29.4147 444.39 14.3981C451.716 12.9111 465.078 17.0797 469.946 20.2488C469.167 31.56 454.612 42.9687 457.046 60.9594C459.918 82.241 466.831 97.867 476.274 112.396C484.209 124.609 495.089 133.093 499.397 149.694C504.021 167.514 498.106 184.408 497.693 200.887C497.774 200.887 497.855 200.887 497.936 200.887C502.95 198.912 505.141 192.086 508.159 187.967C527.922 161.005 554.598 135.067 563.895 98.2571C566.329 88.6523 563.944 72.5875 567.303 62.6658C570.629 64.941 573.956 67.2163 577.282 69.4915C582.312 73.1482 587.342 76.8048 592.372 80.4614C598.457 94.3079 571.343 144.721 566.573 153.107C545.86 189.551 508.767 215.318 493.555 255.98C480.558 290.718 495.575 328.674 487.47 364.46C479.56 399.345 444.341 440.372 415.913 454.901C407.638 457.583 399.362 460.264 391.087 462.946C391.087 463.108 391.087 463.271 391.087 463.434C422.777 474.525 463.253 442.054 478.221 431.499C524.588 398.809 549.365 344.471 562.435 278.408C574.848 215.635 581.322 138.651 637.643 120.441C642.097 125.682 654.948 133.215 652.733 141.893C627.883 154.131 614.375 169.391 606.246 198.205C605.029 202.593 603.812 206.981 602.595 211.369C605.272 209.175 607.949 206.981 610.627 204.787C617.101 199.083 667.945 172.731 682.671 179.434C685.591 184.066 688.512 188.698 691.433 193.33C693.299 196.824 695.165 200.318 697.031 203.812C695.084 203.975 693.137 204.137 691.189 204.3C674.371 203.544 656.117 208.541 644.701 214.294C643.403 214.945 642.105 215.595 640.807 216.245C640.32 216.488 639.834 216.732 639.347 216.976C639.185 217.057 639.022 217.138 638.86 217.22C637.643 217.87 636.426 218.52 635.209 219.17C634.804 219.251 634.398 219.332 633.992 219.414C614.01 231.724 596.656 254.761 588.721 278.895C586.206 290.434 583.691 301.973 581.176 313.511C578.499 321.962 575.822 330.413 573.144 338.864C573.388 338.945 573.631 339.026 573.874 339.108C580.933 333.338 587.991 327.569 595.05 321.8C624.135 301.103 654.121 284.868 697.031 277.676C703.968 276.506 719.033 272.289 725.994 275.97C727.455 284.258 728.915 292.547 730.375 300.835C722.425 300.916 714.474 300.997 706.523 301.079C696.787 303.029 687.052 304.979 677.316 306.929C620.703 321.824 582.442 365.143 546.371 401.514C536.311 412.403 526.251 423.292 516.191 434.18C510.025 439.462 503.859 444.744 497.693 450.026C513.927 459.704 561.315 485.763 590.425 473.916C607.584 466.944 617.004 453.902 627.177 440.031C648.182 411.387 686.176 371.408 735 371.53ZM371.859 305.71C365.774 306.686 359.689 307.661 353.605 308.636C331.748 317.582 297.138 349.59 307.847 384.45C311.4 396.005 318.848 403.733 325.615 411.997C336.373 425.161 347.082 435.887 369.182 437.837C384.881 439.227 395.371 430.963 404.23 425.404C442.248 401.49 449.72 366.947 418.59 330.088C407.394 316.851 396.612 305.491 371.859 305.71Z" stroke="#DDDDDD" stroke-width="12" mask="url(#path-1-outside-1_16_696)"/>
</svg>
