<svg xmlns="http://www.w3.org/2000/svg" xmlns:xlink="http://www.w3.org/1999/xlink" version="1.1" x="0px" y="0px" viewBox="0 0 100 125" style="enable-background:new 0 0 100 100;" xml:space="preserve"><path d="M37.2,56.6c-0.1,0-0.3-0.1-0.4-0.1c-1.6,0.6-3.2,0.6-4.8,1.3c-1.1,0.5-2.2,0.8-3.1,1.5c-0.2,0.1-0.5,0.2-0.6,0  c-0.2-0.3,0.1-0.5,0.3-0.6c1.3-0.9,2.8-1.7,4.2-2.4c0.8-0.4,1.6-0.9,2.5-1.1c0.3-0.1,0.5-0.3,0.8-0.5c0.5-0.4,1-0.7,1.6-0.9  c1-0.2,1.6-0.9,2-1.8c0.1-0.2,0.1-0.5,0.3-0.7c0.9-1.3,0.5-2.7,0.3-4c-0.1-0.8-0.4-1.7-1.5-1.7c-0.1,0-0.1-0.1-0.2-0.1  c-2.1-1.4-4.6-1.8-6.9-2.5c-1.7-0.5-3.4-0.4-5.2-0.4c-1.8,0-3.5,0-5.3-0.2c-0.7-0.1-1.4,0.1-2.1,0.1c-0.4,0-0.9,0.2-1.3-0.2  c1.1-1.1,2.4-1.1,3.7-0.9c0.9,0.1,1.8,0.1,2.7-0.2c0.6-0.2,1.2,0.1,1.8-0.3c-0.3-0.4-0.8-0.7-1.3-0.7c-1.2,0-2.3-0.6-3.3-1  c-1.1-0.4-2.2-0.6-3.4-0.7c-0.9,0-1.8-0.5-2.8-0.4c-0.1,0-0.3,0-0.4-0.2c-0.1-0.5-0.6-0.4-0.9-0.5c-0.6-0.1-1.3-0.1-1.9-0.1  c-0.2,0-0.4,0.1-0.5,0c-1.1-0.9-2.4-0.6-3.6-0.4c-1,0.2-1.9-0.4-2.8-0.4c-0.1,0-0.3-0.2-0.2-0.3c0-0.2,0.2-0.3,0.3-0.3  c0.6-0.1,1.2-0.2,1.8-0.1c0.7,0.1,1.4,0,2.1-0.1c2.6-0.3,5.2-0.1,7.9,0.2c0.2,0,0.4,0.1,0.8,0c-2-1.7-4.4-2.6-6.5-4.2  c0.3-0.5,0.7-0.3,1.1-0.2c1.7,0.7,3.4,1.5,4.9,2.6c1,0.7,2,1.2,3.1,1.5c0.7,0.2,1.3,0.6,1.9,0.9c1,0.6,2,1,3.1,1.3  c1.2,0.3,2.3,0.8,3.4,1.3c0.5,0.2,1,0.4,1.6,0.5c-1.4-1.3-3.2-2.1-4.5-3.5c-1.3-1.4-3.2-2-4.6-3.3c0.1-0.3,0.3-0.2,0.5-0.1  c0.1,0,0.4,0.2,0.4,0c0.2-0.9,0.6-0.3,1-0.2c2.6,1.2,4.6,3.2,6.9,4.9c0.5,0.4,0.8,0.9,1.3,1.2c2,1.2,4.1,2.2,6.5,2  c1.4-0.1,2.7-0.6,3.8-1.7c0.7-0.7,0.8-1.5,1.3-2.2c0.1-0.1,0-0.3,0-0.4c-0.1-1-0.5-1.9-0.9-2.8c-0.1-0.3-0.3-0.5-0.6-0.6  c-0.8-0.3-1.4-0.8-2-1.4c-0.8-0.7-1.6-1.2-2.7-1.3c-0.9-0.1-1.6-0.6-2.2-1.3c-0.8-1-1.8-1.9-2.6-3c-0.3-0.5-0.6-0.9-0.9-1.4  c-0.1-0.2-0.4-0.5-0.1-0.7c0.3-0.3,0.6,0,0.8,0.2c0.3,0.3,0.5,0.5,0.7,0.8c0.8,1,1.5,2,2.7,2.5c0.9,0.4,1.6,1,2.7,0.7  c0.4-0.1,0.8,0.2,1.1,0.4c0.7,0.4,1.3,0.9,2,1.2c0-1-0.6-2.1-1.5-2.4c-2.4-0.9-3.9-2.6-4.9-4.8c-0.4-0.8-0.8-1.5-1.2-2.3  c-0.2-0.5-0.4-1-0.5-1.5c-0.1-0.2-0.2-0.5,0.1-0.6c0.3-0.1,0.5,0,0.6,0.3c0.2,0.7,0.7,1.2,1,1.9c0.7,1.2,1.5,2.2,2.5,3.2  c0.6,0.6,1.3,1.1,2,1.6c0.2,0.2,0.6,0.4,0.9,0.2c0.4-0.2,0.5-0.6,0.5-1.1c0-1.8-0.5-3.5-1.2-5.1c-0.7-1.7-1.5-3.3-2.5-4.8  c-0.1-0.2-0.2-0.4-0.3-0.6c-0.1-0.2-0.2-0.6,0.1-0.7c0.2-0.1,0.5,0,0.7,0.2c0.1,0.2,0.2,0.4,0.3,0.6c0.6,1.1,1.2,2.2,1.8,3.3  c0.1,0.2,0.2,0.3,0.5,0.3c0.1-0.5-0.3-0.9-0.4-1.3c-0.6-1.3-0.8-2.7-0.9-4.1c0-1.7,0.2-3.4,0.1-5.2c0-0.5,0.2-1,0.3-1.4  c0-0.2,0.1-0.4,0.4-0.4c0.3,0,0.4,0.2,0.4,0.5c0,0.3,0.1,0.6,0,0.9c-0.2,0.9-0.1,1.9,0,2.8c0,0.3,0.1,0.6,0,0.9  c-0.4,1.7,0.4,3.1,1.1,4.5c0.7,1.4,1.2,2.8,1.3,4.4c0,0.6,0.2,1.2,0.3,1.8c0.1,0,0.2,0.1,0.2,0.1c0.8-0.1,0.5-1.2,1.2-1.4  c0.8-0.2,0.7-0.9,0.9-1.4c0.7-2.1,1.5-4.1,2-6.2c0-0.1,0.1-0.1,0.1-0.2c0.1-0.3,0.2-0.8,0.6-0.6c0.4,0.1,0.2,0.6,0.1,0.9  c-0.7,1.8-0.8,3.7-1.2,5.5c-0.3,1.4-0.8,2.8-1.3,4.2c-0.5,1.4-1.1,2.7-1.2,4.2c-0.2,1.9,0.4,3.7,0.9,5.5c0.3,1,0.7,2.1,1.1,3.1  c0.2,0.5,0.3,1,0.5,1.5c0.4,1.6,1.1,2.1,2.8,2.2c2.2,0.1,4.2-0.6,6.1-1.4c1.8-0.8,3.6-1.8,5.4-2.6c2.7-1.3,4.4-3.4,5.4-6  c0.6-1.6,1.7-2.9,1.9-4.5c0.1-0.5,0.5-0.7,1.1-0.7c-0.4,1.6-1.1,2.9-1.7,4.3c-0.6,1.5-0.4,3.2-1.4,4.7c1.2-0.1,2.1-0.4,3-0.8  c1.7-0.7,3.4-1.4,4.9-2.5c0.7-0.6,1.4-1.2,2.1-1.9c1-1.1,2.2-2.1,3.1-3.3c0.3-0.4,0.7-0.8,1.2-1c0.3-0.1,0.5-0.1,0.7,0.2  c0.1,0.3-0.1,0.4-0.3,0.5c-0.3,0.2-0.6,0.4-0.9,0.7c-0.7,0.5-1.3,1.1-1.5,2c-0.1,0.3-0.3,0.5-0.5,0.7c-0.7,0.6-1,1.4-1.5,2.1  c0.3,0.4,0.8,0.4,1.2,0.5c2.9,0.3,5.4,1.8,8,2.9c0.1,0.1,0.3,0.1,0.3,0.3c-0.1,0.2-0.3,0.2-0.5,0.1c-1.6-0.7-3.2-0.9-4.9-1.3  c-1.2-0.3-2.4-0.5-3.7-0.7c-1-0.2-1.9,0.1-2.7,0.5c-2,0.9-3.9,1.9-6,2.6c-0.6,0.2-1.2,0.5-1.8,0.6c-0.9,0.3-1.7,0.7-2.5,1.2  c0.1,0.7,0.7,0.7,1.2,0.8c1.5,0.3,3.1,0.5,4.6,0.9c1.5,0.3,2.6,1.3,3.7,2.6c-0.9-0.1-1.6-0.4-2.3-0.7c-0.5-0.3-1-0.5-1.6-0.5  c-0.5-0.1-0.9-0.2-1.3-0.5c-0.5-0.4-1.3-0.4-1.8-0.3c-1.4,0.2-2.7-0.1-4-0.4c-0.8-0.1-1.5-0.1-2.2,0.3c-1.2,0.7-2.6,1.1-3.8,1.9  c-0.8,0.5-1.2,1.2-1.7,1.9c-0.2,0.3-0.2,0.8,0,1.2c0.4,1.1,0.9,2,2.2,2.3c0.4,0.1,0.7,0.5,1.1,0.7c1,0.5,2,0.9,3.2,0.8  c0.6-0.1,1.3,0,1.9,0c1.9,0.2,3.7-0.2,5.6-0.5c2.3-0.4,4.3-1.5,6.6-1.8c0.9-0.1,1.8-0.4,2.6-0.6c0.2,0,0.4-0.1,0.6,0  c0.2,0.1,0.4,0.2,0.4,0.4c0,0.2-0.2,0.3-0.4,0.3c-0.1,0-0.3,0.1-0.4,0.1c-0.9,0.1-1.7,0.5-2.4,0.9c-0.7,0.4-1.3,0.7-2.1,0.7  c-0.6,0-1.3,0.3-1.9,0.6c-1.9,0.8-3.9,1.6-5.9,2.3c0.7,0.8,1.5,0.9,2.4,1c2.4,0.1,4.9,0,7.3-0.5c3-0.6,6.1-0.8,9.2-0.5  c1.6,0.2,3.3,0.4,4.9,0.6c0.2,0,0.4,0.1,0.6,0.1c0.2,0.1,0.5,0.1,0.4,0.4C89.5,50,89.2,50,89,50c-1.2,0.2-2.4-0.3-3.6-0.4  c-0.3,0-0.5-0.2-0.7,0.1c-0.4,0.6-1,0.4-1.4,0.2c-1.1-0.5-2.2-0.2-3.3-0.1c-2,0.2-4,0.7-6,1.1c-0.6,0.1-1.1,0.4-1.6,0.8  c-0.4,0.3-0.4,0.6-0.1,0.9c0.3,0.3,0.7,0.5,1.1,0.6c3,0.5,5.2,2.4,7.3,4.3c1,1,2.2,2,2.8,3.5c-0.5,0.2-0.7-0.2-1-0.5  c-0.8-0.7-1.5-1.5-2.3-2.3c-1.8-1.6-4-2.6-6.4-3.2c-2.1-0.5-4.2-0.9-6.2-1.5c-1.2-0.4-2.4-0.9-3.5-1.5c-2.1-1.1-4.2-2.2-6.5-2.8  c-0.1,0-0.3-0.1-0.4-0.1c-1.6-1-3.2-0.6-4.9-0.3c-0.9,0.2-1.3,0.8-1.6,1.5c-0.4,1-0.2,2.1,0,3.1c0.2,1,0.4,2.1,0.8,3  c1,2.7,1.9,5.4,3.3,8c1.7,3,3.4,6,5.4,8.8c0.4,0.6,0.9,1.2,1.5,1.7c0.4,0.3,0.7,0.7,1,1.1c0.1,0.1,0.2,0.4,0.3,0.5  c1.6,0.9,2.9,2.2,4.8,2.2c0.4,0,0.9,0.1,1.3,0.3c1,0.4,2,0.7,3,0.8c0.7,0.1,1.1,0.6,1.5,1.1c0.6,0.8,1.3,1.2,2.2,1.4  c0.8,0.2,1.7,0.4,2.5,0.7c1.1,0.4,2.3,0.3,3.5,0.4c1.3,0,2.4,0.4,3.6,0.7c1.4,0.3,2.6,1,3.7,1.8c1.1,0.8,2.2,1.5,3,2.7  c0.4,0.6,0.9,1,1.3,1.5c0.5,0.7,0.8,1.4,1,2.2c0,0.2,0,0.5-0.3,0.5c-0.2,0-0.3-0.2-0.4-0.4c-0.6-1.6-1.6-2.8-3.1-3.7  c-0.4-0.2-0.7-0.6-1-0.9c-0.3-0.3-0.6-0.6-1.1-0.8c0.4,2.3,0.9,4.7,0.5,7c-0.5-1.4-1.5-2.6-1.9-4c-0.4-1.3-1.1-2.4-1.8-3.6  c-0.1-0.2-0.3-0.3-0.4-0.4c-0.2-0.1-0.5-0.2-0.7,0c-0.2,0.2-0.2,0.4-0.1,0.6c0.3,1.2,0.6,2.3,1,3.4c0.3,1,0.1,2,0,3  c0,0.5-0.5,0.9-1,1.2c-0.8,0.5-0.8,0.6-1-0.3c-0.3-1.4-0.3-2.8-0.9-4.2c-0.3-0.8-0.7-1.5-0.9-2.3c-0.3-0.8-0.8-1.3-1.4-1.7  c-0.3-0.2-0.7-0.6-1.1-0.2c-0.4,0.3-0.9,0.8-0.7,1.4c0.1,0.5,0.2,1.1,0.5,1.5c0.9,1.3,1.3,2.8,2.2,4c0.1,0.1,0.2,0.3,0,0.5  c-0.2,0.2-0.4,0-0.5-0.1c-0.3-0.6-0.7-0.3-1.2-0.1c0.1-0.7,0.2-1.2-0.3-1.7c-0.9-0.9-2.3-1-3.2-0.1c-0.6,0.6-1,1.3-1.4,2  c-0.1,0.2-0.2,0.6-0.5,0.4c-0.3-0.1-0.3-0.5-0.2-0.7c0.6-1.1,0.7-2.4,1.5-3.5c0.5-0.8,1-1.6,0.8-2.6c-0.1-0.7-1.3-2.1-2-2.1  c-0.6-0.1-1,0.4-1.2,0.9c-0.4,1.1-1.1,2.2-1.2,3.4c0,1.6-0.6,3.2-0.2,4.8c0,0.1,0,0.2,0,0.3c0,0.2-0.1,0.4-0.3,0.4  c-0.2,0-0.4-0.1-0.4-0.3c-0.2-1.2-0.6-2.4-0.7-3.6c-0.1-0.8,0.2-1.7,0.4-2.5c0.4-1.1,0.3-2.2,0.3-3.4c0-0.5-0.4-0.6-0.8-0.4  c-0.4,0.3-0.6,0.6-0.8,1.1c-0.8,2.1-2.1,3.7-3.7,5.2c-0.3,0.3-0.6,0.7-0.7,1.1c-0.2,0.8-0.8,1.3-1.3,2.1c-0.3-1,0-1.8,0.2-2.5  c0.3-0.8,0.7-1.5,1.2-2.2c0.8-1.4,1.8-2.7,2.4-4.2c0.3-0.7,0.1-0.8-0.6-0.7c-0.6,0.1-1.1,0.4-1.3,1.1c-0.5,1.5-1.6,2.4-2.7,3.4  c-0.6,0.6-1.2,1.1-1.6,1.9c-0.4,0.7-1,1.2-1.8,1.5c0.6-1.2,1.2-2.5,1.7-3.7c0,0-0.1-0.1-0.1-0.1c-0.6,0.6-1.2,1.2-1.9,1.8  c-0.6,0.6-1.2,1.2-2.1,1.4c-0.1-0.5,0.1-0.7,0.4-0.9c1.7-1.7,3.2-3.7,4.5-5.8c0.8-1.2,1.8-1.9,3.2-2.2c1-0.2,2.1-0.4,3.1-0.7  c0.4-0.1,0.8-0.2,1.1-0.5c-0.6-0.5-1.3-0.8-2-0.9c-1.5-0.1-2.7-0.8-4-1.5c-2.8-1.6-4.8-4-6.6-6.7c-0.2-0.3-0.4-0.7-0.5-1.1  c-0.5-1.3-1.6-2.3-2.1-3.6c-0.3-0.7-0.6-1.5-1.1-2.1c-2-2.6-2.6-5.8-4.1-8.7C48.1,56.4,48,56,48,55.7c0-1.9-1.5-2.9-2.6-4.1  c-0.6-0.6-1.4-0.4-2,0.2c-1,1.1-1.5,2.5-1.6,4c-0.2,2.5,0.3,4.9,0.7,7.4c0.3,1.8,0.5,3.6,0.7,5.3c0,0.3,0.1,0.6-0.3,0.8  c-0.4-0.5-0.6-1.1-0.6-1.7c0.1-0.8-0.2-1.6-0.3-2.3c-0.1-0.6-0.6-0.7-0.8-1.2c-0.2-0.7-0.6-1.4-0.8-2.1c-0.1-0.4-0.3-0.6-0.9-0.3  c-0.8,0.3-1.2,0.8-1.4,1.6c-0.3,1.5-0.8,2.9-1.2,4.3c-0.8,2.9-0.8,5.8-0.9,8.8c0,1.2,0.3,2.5,0.1,3.7c-0.2,2.2-0.1,4.4,0.2,6.6  c0,0.3,0.3,0.9-0.3,0.9c-0.4,0-0.5-0.5-0.5-0.9c-0.2-1.2-0.5-2.4-0.7-3.6c-0.4-2-0.4-4-0.7-5.9c-0.2-1.1-0.3-2.2-0.4-3.2  c0-0.2-0.1-0.5-0.1-0.7c-0.1-0.3-0.4-0.5-0.7-0.2c-0.5,0.5-1.2,0.9-1.6,1.5c-0.5,0.8-1.1,1.6-1.7,2.4c-0.1,0.2-0.2,0.3-0.4,0.2  c-0.2-0.1-0.2-0.3-0.2-0.5c0.1-0.3,0.2-0.6,0.4-0.9c0.4-0.7,1-1.2,1.1-2.1c0-0.1,0.1-0.1,0.1-0.2c1.6-1.1,2.1-3,2.9-4.6  c0.7-1.3,1.3-2.7,1.8-4.1c0.4-0.9,0.6-1.9,0.9-2.8c0.1-0.2,0.2-0.6-0.1-0.7c-0.3-0.1-0.6-0.4-1-0.2c-2.5,1.4-5.1,2.5-7.4,4.2  c-0.2,0.2-0.5,0.4-0.6,0.7c-0.2,0.8-0.9,1.1-1.5,1.3c-0.5,0.2-1.1,0.2-1.4,0.8c-0.1,0.2-0.3,0.2-0.5,0.1c-0.2-0.2-0.1-0.4,0-0.5  c0.4-0.5,0.7-1,1.3-1.4c1.7-1.1,3.2-2.4,4.6-3.7c0.8-0.7,1.7-1.3,2.6-1.7c1.5-0.7,2.7-1.9,4-2.9C36.7,57.5,37,57.1,37.2,56.6z   M71.3,85.1c0.4,0,0.4-0.4,0.5-0.6c0.1-0.4,0.4-0.6,0.8-0.8c0.9-0.5,3.5,0.5,3.8,1.7c0.2,0.8,0.3,1.6,0.4,2.4c0,0.4-0.2,0.7-0.4,1  c-0.1,0.3-0.4,0.4-0.5,0.8c0.7-0.4,1.3-0.2,1.9-0.1c0.1-0.3-0.1-0.4-0.1-0.6c-0.4-0.7-0.6-1.5-0.7-2.4c-0.1-1,0.1-1.4,1-1.7  c0.9-0.4,1.8-0.2,2.6,0.5c0.3,0.2,0.5,0.6,0.9,0.6c0-0.9,0-0.9,0.9-1c0.2,0,0.4,0.1,0.5-0.2c-0.3-0.1-0.5-0.1-0.8-0.1  c-1.8-0.1-3.5-0.5-5.2-1c-1.3-0.3-2.6-0.8-3.8-1.7c-0.7-0.6-1.6-1-2.4-1.4c-0.6-0.3-1-0.1-1.1,0.6c-0.1,0.9-0.2,1-1.2,1.2  c-0.5,0.1-1,0.1-1.4,0.4c1,0.7,0.5,1.6,0.4,2.6c0.3-0.2,0.4-0.5,0.5-0.7c0.1-0.2,0.2-0.5,0.3-0.7c0.3-0.7,1.1-1.1,1.9-1  c0.7,0.1,1,0.6,1.1,1.5C71.4,84.7,71.4,84.9,71.3,85.1c-0.2,0.3-0.2,0.7-0.2,1C71.4,85.8,71.4,85.4,71.3,85.1z M34.7,60.2  c0.5,0.3,0.9,0,1.2-0.3c0.3-0.2,0.5-0.1,0.8,0.2c0.6,0.7,0.7,1.4,0.4,2.2c-0.5,1.5-1,3.1-1.5,4.6c-0.5,1.5-1.1,2.9-2.2,4.2  c-0.2,0.3-0.5,0.5-0.5,1c0.6-0.2,0.8-0.7,1.4-0.6c0.2,2.1,0.5,4.2,0.7,6.4c0.2-2.6,0.3-5.3,0.4-7.9c0-0.7,0-1.4,0.3-2  c0.4-0.8,0.6-1.7,0.9-2.5c0.4-1.5,1.2-2.9,1.7-4.4c0.4-1.3,1.4-1.5,2.5-0.7c0.1,0.1,0.2,0.2,0.4,0.2c0-0.7-0.2-1.3-0.4-1.9  c-0.3-0.8-0.4-1.6-0.2-2.5c0.3-1.4,0.7-2.7,1.2-4c0.4-1.2,1.2-1.9,2.3-2.2c1-0.3,2.1-0.2,2.8,1c0.8,1.6,1.7,3.2,2.5,4.8  c0.2,0.4,0.4,0.7,0.3,1.2c-0.1,0.4,0.1,0.7,0.2,1.1c0.6,1.8,1.6,3.3,2.3,5.1c0.7,1.8,1.7,3.6,2.7,5.3c0.8,1.3,1.7,2.6,2.3,4.1  c0.3,0.9,0.9,1.6,1.5,2.2c0.8,0.9,1.7,1.8,2.6,2.6c0.1,0.1,0.3,0.4,0.5,0.2c0-0.1,0-0.2,0-0.2c-0.2-0.3-0.5-0.5-0.7-0.7  c-1.6-1.5-2.9-3.2-3.9-5.2c-1.2-2.5-2.9-4.7-3.9-7.3c-1.1-2.7-2.2-5.3-3.1-8.1c-0.2-0.8-0.4-1.6-0.6-2.4c-0.4-1.3-0.2-2.6-0.2-3.9  c0-0.3,0.2-0.5,0.4-0.7c1.1-0.9,2.3-1.4,3.7-1.4c2.8,0,5.4,1.1,8,2.1c1.1,0.4,2.2,1,3.3,1.5c1.8,0.8,3.8,1.3,5.7,1.9  c-0.1-1,0.1-1.8,1-2.3c-0.2,0-0.3,0-0.4,0c-2.7,0.5-5.2,0.3-7.7-1c-0.7-0.4-0.8-0.6-0.1-1.2c0.4-0.3,0.9-0.3,1.2-0.7  c-0.2-0.2-0.4-0.1-0.5-0.1c-3.5,0.1-6.8-0.6-9.6-2.9c-1-0.9-1.5-1.9-1.6-3.2c-0.1-1.3,0.4-2.1,1.6-2.7c0.9-0.4,1.8-0.7,2.6-1.3  c1.5-1,3-1.6,4.8-1.4c0.5,0.6,1.2,0.6,1.8,0.6c-0.6-0.1-1.1-0.8-1.8-0.6c-0.5-0.7-0.5-0.7,0.1-1.1c0.3-0.2,0.6-0.4,0.9-0.5  c0.7-0.3,1.4-0.6,2.3-1c-0.6,0-0.9,0.3-1.2,0c-0.5-0.4-1-0.1-1.5,0.1c-1.3,0.6-2.4,1.5-3.5,2.2c-1.5,0.9-3,1.8-4.7,2.3  c-1.2,0.4-2.5,0.6-3.7,1.1c-0.9,0.4-2,0.4-2.9,0.1c-1-0.3-2-0.9-2.4-2c-0.3-0.8-0.6-1.6-0.8-2.5c-0.3-1.6-0.7-3.1-1.1-4.7  c-0.2-0.9-0.4-1.9-0.7-2.8c-0.3-1.1-0.1-2.2,0.3-3.2c0.1-0.4,0.2-0.8,0.3-1.4c-0.6,0.3-0.6,0.8-0.5,1.2c0,0.2,0,0.4-0.2,0.5  c-0.2,0.1-0.4,0.1-0.6-0.2c0-0.1-0.1-0.1-0.1-0.2c-0.1-0.1-0.2-0.2-0.4-0.1C41.1,24,41,24.1,41,24.3c0,0.4,0,0.8,0.1,1.2  c0.1,0.6-0.1,1-0.8,1c0.4,1,0.9,2,1.4,2.9c0.4,0.6,0.7,1.3,1,1.9c0.1,0.1,0.1,0.3,0,0.4c-0.1,0.2-0.3,0.1-0.5,0.1  c-0.6-0.2-1-0.6-1.4-1.1c-0.5-0.5-1.1-0.6-1.7-0.6c0.5,0.4,1.1,0.7,1.6,1.1c1.7,1.5,2.7,3.3,3.4,5.4c0.2,0.7,0.2,1.4-0.3,2  c-2,2.8-4.9,3.7-8.2,2.8c-0.3-0.1-0.6-0.1-1-0.1c-0.6,0-1.2,0.4-1.6,0.2c-1.2-0.5-2.4-0.6-3.6-1C28,40,26.6,39.4,25.2,39  c-1.3-0.4-2.6-0.8-3.8-1.5c-0.2-0.1-0.4-0.2-0.5,0c-0.3,0.4-0.7,0.2-1.1,0.1c-0.7-0.2-1.3-0.2-2-0.5c-0.3-0.1-0.6-0.3-1,0  c2.7,1,5.4,1.5,8,2.2c1.1,0.3,2.1,0.9,2.4,2.3c0.8-0.1,1.6,0.3,2.5,0.2c0.9-0.1,1.7,0.2,2.6,0.3c2.1,0.4,4.1,1.2,6.2,1.5  c1.1,0.2,2.1,0.8,2.2,2.2c0,0.4,0.3,0.7,0.4,1c0.3,0.6,0.6,1.3,0.4,2.1c-0.4,1.6-0.5,3.4-1.4,4.9c-0.1,0.1-0.1,0.3-0.1,0.4  c-0.1,0.5,0,1-0.8,0.9c-0.2,0-0.3,0.2-0.2,0.4c0.1,0.4-0.2,0.6-0.4,0.9C37.7,58.1,36.4,59.3,34.7,60.2c-0.7,0.5-1.6,0.7-2.4,1.4  c0.9,0,1.5-0.6,2.2-1C34.7,60.6,34.8,60.4,34.7,60.2z M87.4,85.9c-1-0.6-2-1-3.1-1c1,0.2,1.5,0.8,2,1.7c0.2,0.4,0.4,0.9,1,1.1  C87.1,87,86.6,86.4,87.4,85.9z M65.3,83.1c-1,0-1.4,0.1-2.3,0.8c0.6-0.1,0.8,0.4,1.1,0.3c0.4-0.1,0.6-0.5,0.9-0.8  C65.1,83.4,65.3,83.3,65.3,83.1z M74.5,28.6c-0.6,0.2-0.8,0.8-1.1,1.2c0.6-0.2,1.3-0.1,1.9-0.5C74.9,29.1,74.6,28.9,74.5,28.6z   M83.2,88.6c0.2-1-0.5-1.5-1.1-2.1C82.3,87.2,82.7,87.9,83.2,88.6z M41.1,21.9c0.1-0.6,0.1-1,0.1-1.4c0-0.1,0-0.4-0.2-0.4  c-0.2,0-0.4,0-0.5,0.1c-0.1,0.1-0.1,0.3,0,0.4C40.7,20.9,40.8,21.3,41.1,21.9z M40.8,17.7c-0.2-0.6-0.1-1.4-0.7-1.8  C40.4,16.5,40.4,17.1,40.8,17.7z M38.2,54.9c0.4-0.2,1.1,0.4,1.3-0.6C38.9,54.3,38.6,54.6,38.2,54.9z"/><path d="M47.5,41.6c0.7,0.2,1.6,0,2,1c0.4,0.9,0.4,1.7-0.2,2.5c-0.1,0.1-0.2,0.3-0.3,0.4c-1,1.3-2.6,1.2-3.5-0.2  c-0.8-1.3-0.8-2.2,0.1-3.1C46,41.6,46.7,41.7,47.5,41.6z"/><text x="0" y="115" fill="#000000" font-size="5px" font-weight="bold" font-family="'Helvetica Neue', Helvetica, Arial-Unicode, Arial, Sans-serif">Created by Alex Muravev</text><text x="0" y="120" fill="#000000" font-size="5px" font-weight="bold" font-family="'Helvetica Neue', Helvetica, Arial-Unicode, Arial, Sans-serif">from the Noun Project</text></svg>